<?xml version="1.0" encoding="UTF-8"?>
<svg width="256px" height="256px" viewBox="0 0 256 256" version="1.1" xmlns="http://www.w3.org/2000/svg" xmlns:xlink="http://www.w3.org/1999/xlink">
    <!-- Generator: Sketch 45.2 (43514) - http://www.bohemiancoding.com/sketch -->
    <title>Angry</title>
    <desc>Created with Sketch.</desc>
    <defs>
        <circle id="path-1" cx="128" cy="128" r="128"></circle>
    </defs>
    <g id="Emoji" stroke="none" stroke-width="1" fill="none" fill-rule="evenodd">
        <g id="Angry">
            <g>
                <mask id="mask-2" fill="white">
                    <use xlink:href="#path-1"></use>
                </mask>
                <use id="Base" fill="#FF4F50" xlink:href="#path-1"></use>
                <path d="M26.1014933,205.559067 C50.150336,237.22161 87.5493649,256.198961 128.079816,256.198961 C198.763691,256.198961 256.064486,198.898475 256.064486,128.214291 C256.064486,89.126354 238.420656,52.9134653 208.644236,28.7638583 C204.783739,25.6328748 199.116024,26.2242622 195.985041,30.084759 C192.854057,33.9452559 193.445444,39.6129706 197.305941,42.7439542 C222.912033,63.5112943 238.064486,94.6107835 238.064486,128.214291 C238.064486,188.957328 188.822588,238.198961 128.079816,238.198961 C93.2372919,238.198961 61.1163081,221.899843 40.4356161,194.671784 C37.429176,190.713526 31.783172,189.941924 27.8249133,192.948364 C23.8666546,195.954804 23.0950532,201.600808 26.1014933,205.559067 Z" id="Shadow" fill="#DE3141" fill-rule="nonzero" mask="url(#mask-2)"></path>
                <path d="M80.3773533,23.9709597 C60.4052818,34.1751564 43.2563424,49.2584819 30.5589032,67.7404084 C28.5261153,70.69926 29.2768382,74.7457833 32.2356897,76.7785712 C35.1945412,78.8113592 39.2410646,78.0606363 41.2738525,75.1017848 C52.7487589,58.3993322 68.2489969,44.7661196 86.2920732,35.5474916 C89.4888441,33.9141868 90.7562839,29.9986367 89.1229792,26.8018657 C87.4896744,23.6050947 83.5741243,22.3376549 80.3773533,23.9709597 Z" id="Highlight" fill="#FF6E6F" fill-rule="nonzero" mask="url(#mask-2)"></path>
                <path d="M190.596022,176.220324 C174.017836,159.643382 151.943229,150.5 128.499424,150.5 C105.055124,150.5 82.9811392,159.643163 66.4038059,176.220497 C63.865398,178.758905 63.865398,182.874477 66.4038059,185.412885 C68.9422138,187.951293 73.0577862,187.951293 75.5961941,185.412885 C89.7355313,171.273548 108.502906,163.5 128.499424,163.5 C148.495535,163.5 167.263704,171.273843 181.403978,185.413057 C183.942481,187.95137 188.058054,187.951216 190.596366,185.412712 C193.134679,182.874209 193.134525,178.758637 190.596022,176.220324 Z" id="Shape" fill="#A60B39" fill-rule="nonzero" mask="url(#mask-2)"></path>
                <g id="Group" mask="url(#mask-2)" fill-rule="nonzero" fill="#A60B39">
                    <g transform="translate(62.000000, 74.000000)" id="Combined-Shape">
                        <path d="M13.7699421,16.2668579 C9.35248814,18.9701804 6.39221739,23.8870417 6.39221739,29.49225 C6.39221739,38.00175 13.214913,44.9247794 21.601087,44.9247794 C29.9872609,44.9247794 36.8099565,38.00175 36.8099565,29.49225 C36.8099565,24.0999417 34.0702923,19.3446832 29.9292011,16.5843917 C29.6742984,16.2849423 29.3756191,16.0142066 29.0350157,15.781977 L7.03501571,0.781976957 C4.98160828,-0.61807356 2.18202748,-0.0884231369 0.781976957,1.96498429 C-0.61807356,4.01839172 -0.0884231369,6.81797252 1.96498429,8.21802304 L13.7699421,16.2668579 Z"></path>
                    </g>
                </g>
                <g id="Group" mask="url(#mask-2)" fill-rule="nonzero" fill="#A60B39">
                    <g transform="translate(175.500000, 96.500000) scale(-1, 1) translate(-175.500000, -96.500000) translate(157.000000, 74.000000)" id="Combined-Shape">
                        <path d="M13.7699421,16.2668579 C9.35248814,18.9701804 6.39221739,23.8870417 6.39221739,29.49225 C6.39221739,38.00175 13.214913,44.9247794 21.601087,44.9247794 C29.9872609,44.9247794 36.8099565,38.00175 36.8099565,29.49225 C36.8099565,24.0999417 34.0702923,19.3446832 29.9292011,16.5843917 C29.6742984,16.2849423 29.3756191,16.0142066 29.0350157,15.781977 L7.03501571,0.781976957 C4.98160828,-0.61807356 2.18202748,-0.0884231369 0.781976957,1.96498429 C-0.61807356,4.01839172 -0.0884231369,6.81797252 1.96498429,8.21802304 L13.7699421,16.2668579 Z"></path>
                    </g>
                </g>
            </g>
        </g>
    </g>
</svg>