<?xml version="1.0" encoding="UTF-8"?>
<svg width="256px" height="256px" viewBox="0 0 256 256" version="1.1" xmlns="http://www.w3.org/2000/svg" xmlns:xlink="http://www.w3.org/1999/xlink">
    <!-- Generator: Sketch 45.2 (43514) - http://www.bohemiancoding.com/sketch -->
    <title>Bad Spelling </title>
    <desc>Created with Sketch.</desc>
    <defs></defs>
    <g id="Emoji" stroke="none" stroke-width="1" fill="none" fill-rule="evenodd">
        <g id="Bad-Spelling-">
            <g id="Bad-Spelling">
                <rect id="Rectangle-4-Copy-2" x="0" y="0" width="256" height="256"></rect>
                <path d="M160.476707,146.429312 L151.214338,137.480739 C149.380566,135.709092 147.318261,134.319803 145.126078,133.311172 C144.629157,130.1371 143.165982,127.352237 140.736531,124.956528 C137.724791,121.902369 134.098032,120.375313 129.856146,120.375313 L101.923462,120.375313 L101.923462,151.298512 L114.019023,151.298512 C113.472865,157.30997 115.39346,163.49509 119.752569,168.214992 L95.4970363,168.214992 C92.6330697,168.214992 90.08871,167.13991 88.1510225,165.134579 C86.1353904,163.118947 85.0706102,160.598968 85.0706102,157.788566 L85.0706924,95.598388 C85.1192489,88.0235822 87.5687657,81.4420521 92.3855921,76.0354127 C97.7481386,70.0273746 104.928771,67 113.631011,67 L129.856146,67 C138.560254,67 145.761008,70.0503192 151.167644,76.1017895 C155.988005,81.5123994 158.416546,88.104154 158.416546,95.6876565 C158.416546,102.313955 156.557961,108.174978 152.864374,113.142173 C159.032353,119.209032 162.170597,126.845562 162.170597,135.836912 C162.170597,139.588208 161.60312,143.125197 160.476707,146.429312 Z M232.061216,93.7164987 C226.960327,89.7918484 221.076014,87.8528521 214.290476,87.8528521 C206.067315,87.8528521 199.156046,90.7356272 193.312929,96.6163242 C187.450422,102.441252 184.567647,109.35252 184.567647,117.575682 C184.567647,123.747971 186.19203,129.194092 189.481951,134.007845 L174.586242,148.941869 C167.358367,139.977129 163.714794,129.475334 163.714794,117.575682 C163.714794,103.658323 168.69899,91.6730719 178.559798,81.8581895 C188.387866,71.9841954 200.373117,67 214.290476,67 C228.429381,67 240.571388,72.0977894 250.507492,82.2180674 C252.459978,84.2378807 253.47675,86.7622795 253.475616,89.6745815 C253.427194,91.7083343 252.848877,93.5741939 251.774225,95.1913502 C245.774593,91.5847735 238.426962,91.0941539 232.061216,93.7164987 Z M248.702768,136.940176 C249.262851,137.314291 249.791515,137.749025 250.284371,138.242081 C252.33804,140.227295 253.413122,142.771655 253.411988,145.54041 C253.480518,148.418647 252.44027,151.00133 250.428659,153.012568 C241.335499,162.317196 230.332983,167.378192 217.603339,168.119599 L248.702768,136.940176 Z M101.923462,95.6876565 L101.923462,107.522461 L129.856146,107.522461 C133.589006,107.522461 136.494655,106.334751 138.573179,103.959294 C140.524447,101.753513 141.500066,98.9963281 141.500066,95.6876565 C141.500066,92.5486604 140.630493,89.8975211 138.891319,87.7341589 C136.812795,85.1466081 133.8011,83.8528521 129.856146,83.8528521 L113.631011,83.8528521 C109.686056,83.8528521 106.674362,85.1466081 104.595838,87.7341589 C102.856664,89.8551022 101.965881,92.5062416 101.923462,95.6876565 Z M20.8528521,132.583323 L20.8528521,157.788566 C20.8528521,160.570263 19.8312514,163.071423 17.8360678,165.134579 C15.8154739,167.155173 13.2719097,168.214992 10.4264261,168.214992 C7.56245943,168.214992 5.01809974,167.13991 3.0804123,165.134579 C1.06478019,163.118947 0,160.598968 0,157.788566 L0,110.322092 C0,98.468215 3.91294835,88.2289429 11.6860364,79.8042188 C19.4677822,71.3192766 29.0370083,67 40.1406931,67 C51.2410576,67 60.8276164,71.3163362 68.6589777,79.8042188 C76.4320657,88.2289429 80.3450141,98.468215 80.3450141,110.322092 L80.3450141,157.788566 C80.3450141,160.598968 79.2802339,163.118947 77.2646018,165.134579 C75.2440079,167.155173 72.7004437,168.214992 69.8549601,168.214992 C66.9909934,168.214992 64.4466337,167.13991 62.5089463,165.134579 C60.4933142,163.118947 59.428534,160.598968 59.428534,157.788566 L59.428534,132.583323 L20.8528521,132.583323 Z M16.8528521,115.73047 L63.428534,115.73047 L63.428534,110.322092 C63.428534,103.026047 61.1591587,96.7905674 56.6203401,91.6154658 C52.0815214,86.4403641 46.5883607,83.8528521 40.1406931,83.8528521 C33.7354443,83.8528521 28.2634927,86.4403641 23.724674,91.6154658 C19.1434365,96.7905674 16.8528521,103.026047 16.8528521,110.322092 L16.8528521,115.73047 Z" id="Combined-Shape" fill="#5784F1"></path>
                <path d="M146.350603,142.515029 C140.392685,136.758957 130.89662,136.922586 125.140548,142.880504 C119.384476,148.838421 119.548104,158.334486 125.506022,164.090558 L158.801797,196.258319 C164.69265,201.949599 174.059821,201.862885 179.844304,196.063524 L251.071711,124.652905 C256.922047,118.787521 256.909848,109.290054 251.044464,103.439719 C245.17908,97.5893833 235.681613,97.6015823 229.831278,103.466966 L169.029267,164.425372 L146.350603,142.515029 Z" id="Path" fill="#32BA7C"></path>
            </g>
        </g>
    </g>
</svg>