<?xml version="1.0" encoding="UTF-8"?>
<svg width="256px" height="256px" viewBox="0 0 256 256" version="1.1" xmlns="http://www.w3.org/2000/svg" xmlns:xlink="http://www.w3.org/1999/xlink">
    <!-- Generator: Sketch 45.2 (43514) - http://www.bohemiancoding.com/sketch -->
    <title>Creative</title>
    <desc>Created with Sketch.</desc>
    <defs>
        <circle id="path-1" cx="19.5" cy="19.5" r="19.5"></circle>
        <circle id="path-3" cx="19.5" cy="19.5" r="19.5"></circle>
        <circle id="path-5" cx="19.5" cy="19.5" r="19.5"></circle>
        <circle id="path-7" cx="19.5" cy="19.5" r="19.5"></circle>
        <circle id="path-9" cx="19.5" cy="19.5" r="19.5"></circle>
        <circle id="path-11" cx="19.5" cy="19.5" r="19.5"></circle>
        <circle id="path-13" cx="19.5" cy="19.5" r="19.5"></circle>
    </defs>
    <g id="Emoji" stroke="none" stroke-width="1" fill="none" fill-rule="evenodd">
        <g id="Creative">
            <g>
                <path d="M218.45271,218.462104 C168.50421,268.410604 87.2782096,268.458604 37.3877096,218.567604 C-12.5042904,168.677604 -12.4557904,87.4521042 37.4927096,37.5036042 C60.4627096,14.5326042 91.0127096,1.24410423 123.51671,0.0831042296 C155.84521,-1.07189577 187.08121,9.84460423 211.47121,30.8216042 C216.15821,34.8526042 218.95071,40.6541042 219.17921,46.8341042 C219.40721,53.0141042 217.04971,59.0136042 212.67421,63.3891042 L191.49771,84.5656042 C185.25471,90.8076042 185.24771,100.962604 191.48471,107.198104 C197.72021,113.434604 207.87571,113.427604 214.11721,107.185604 L217.72221,103.580604 C223.85271,97.4501042 232.98571,95.4356042 241.11671,98.4241042 C249.24771,101.412104 254.89621,108.854604 255.58721,117.492604 C258.59221,155.056104 245.05671,191.859104 218.45271,218.462104 Z M127.5,152.49707 C141.305501,152.49707 152.49707,141.305501 152.49707,127.5 C152.49707,113.694499 141.305501,102.50293 127.5,102.50293 C113.694499,102.50293 102.50293,113.694499 102.50293,127.5 C102.50293,141.305501 113.694499,152.49707 127.5,152.49707 Z" id="Combined-Shape" fill="#FFD592" fill-rule="nonzero"></path>
                <path d="M246.483398,118.185059 C249.265413,152.961166 236.700656,187.360991 212.070801,211.98992 C174.591951,249.46877 117.301897,256.600492 72.6421943,233.366109" id="Shape" stroke="#F9BD6E" stroke-width="18" stroke-linecap="round" fill-rule="nonzero"></path>
                <g id="Group-7" transform="translate(142.000000, 29.500000)">
                    <mask id="mask-2" fill="white">
                        <use xlink:href="#path-1"></use>
                    </mask>
                    <use id="Base" fill="#FF4F50" xlink:href="#path-1"></use>
                    <path d="M4.22938383,31.7025699 C7.90432754,36.540976 13.6268282,39.4447385 19.8224916,39.4447385 C30.6315596,39.4447385 39.3940722,30.6822732 39.3940722,19.8731579 C39.3940722,13.8982013 36.694104,8.35668076 32.1439187,4.66633838 C30.2136703,3.1008466 27.3798129,3.39654028 25.8143211,5.32678871 C24.2488294,7.25703714 24.5445231,10.0908945 26.4747715,11.6563863 C28.9397924,13.6555952 30.3940722,16.6404161 30.3940722,19.8731579 C30.3940722,25.7116996 25.6610077,30.4447385 19.8224916,30.4447385 C16.4707917,30.4447385 13.3873136,28.8800924 11.3964452,26.2589286 C9.89322515,24.2797992 7.07022318,23.8939985 5.09109383,25.3972186 C3.11196448,26.9004386 2.72616377,29.7234406 4.22938383,31.7025699 Z" id="Shadow" fill="#DE3141" fill-rule="nonzero" mask="url(#mask-2)"></path>
                </g>
                <g id="Group-7" transform="translate(76.500000, 29.000000)">
                    <mask id="mask-4" fill="white">
                        <use xlink:href="#path-3"></use>
                    </mask>
                    <use id="Base" fill="#FF9700" xlink:href="#path-3"></use>
                    <path d="M4.22938383,31.7025699 C7.90432754,36.540976 13.6268282,39.4447385 19.8224916,39.4447385 C30.6315596,39.4447385 39.3940722,30.6822732 39.3940722,19.8731579 C39.3940722,13.8982013 36.694104,8.35668076 32.1439187,4.66633838 C30.2136703,3.1008466 27.3798129,3.39654028 25.8143211,5.32678871 C24.2488294,7.25703714 24.5445231,10.0908945 26.4747715,11.6563863 C28.9397924,13.6555952 30.3940722,16.6404161 30.3940722,19.8731579 C30.3940722,25.7116996 25.6610077,30.4447385 19.8224916,30.4447385 C16.4707917,30.4447385 13.3873136,28.8800924 11.3964452,26.2589286 C9.89322515,24.2797992 7.07022318,23.8939985 5.09109383,25.3972186 C3.11196448,26.9004386 2.72616377,29.7234406 4.22938383,31.7025699 Z" id="Shadow" fill="#F9811C" fill-rule="nonzero" mask="url(#mask-4)"></path>
                </g>
                <g id="Group-7" transform="translate(29.000000, 74.981661)">
                    <mask id="mask-6" fill="white">
                        <use xlink:href="#path-5"></use>
                    </mask>
                    <use id="Base" fill="#FFE554" xlink:href="#path-5"></use>
                    <path d="M4.22938383,31.7025699 C7.90432754,36.540976 13.6268282,39.4447385 19.8224916,39.4447385 C30.6315596,39.4447385 39.3940722,30.6822732 39.3940722,19.8731579 C39.3940722,13.8982013 36.694104,8.35668076 32.1439187,4.66633838 C30.2136703,3.1008466 27.3798129,3.39654028 25.8143211,5.32678871 C24.2488294,7.25703714 24.5445231,10.0908945 26.4747715,11.6563863 C28.9397924,13.6555952 30.3940722,16.6404161 30.3940722,19.8731579 C30.3940722,25.7116996 25.6610077,30.4447385 19.8224916,30.4447385 C16.4707917,30.4447385 13.3873136,28.8800924 11.3964452,26.2589286 C9.89322515,24.2797992 7.07022318,23.8939985 5.09109383,25.3972186 C3.11196448,26.9004386 2.72616377,29.7234406 4.22938383,31.7025699 Z" id="Shadow" fill="#FFC83E" fill-rule="nonzero" mask="url(#mask-6)"></path>
                </g>
                <g id="Group-7" transform="translate(29.000000, 140.432210)">
                    <mask id="mask-8" fill="white">
                        <use xlink:href="#path-7"></use>
                    </mask>
                    <use id="Base" fill="#FA5C8B" xlink:href="#path-7"></use>
                    <path d="M4.22938383,31.7025699 C7.90432754,36.540976 13.6268282,39.4447385 19.8224916,39.4447385 C30.6315596,39.4447385 39.3940722,30.6822732 39.3940722,19.8731579 C39.3940722,13.8982013 36.694104,8.35668076 32.1439187,4.66633838 C30.2136703,3.1008466 27.3798129,3.39654028 25.8143211,5.32678871 C24.2488294,7.25703714 24.5445231,10.0908945 26.4747715,11.6563863 C28.9397924,13.6555952 30.3940722,16.6404161 30.3940722,19.8731579 C30.3940722,25.7116996 25.6610077,30.4447385 19.8224916,30.4447385 C16.4707917,30.4447385 13.3873136,28.8800924 11.3964452,26.2589286 C9.89322515,24.2797992 7.07022318,23.8939985 5.09109383,25.3972186 C3.11196448,26.9004386 2.72616377,29.7234406 4.22938383,31.7025699 Z" id="Shadow" fill="#E34473" fill-rule="nonzero" mask="url(#mask-8)"></path>
                </g>
                <g id="Group-7" transform="translate(74.648709, 187.500000)">
                    <mask id="mask-10" fill="white">
                        <use xlink:href="#path-9"></use>
                    </mask>
                    <use id="Base" fill="#32BA7C" xlink:href="#path-9"></use>
                    <path d="M4.22938383,31.7025699 C7.90432754,36.540976 13.6268282,39.4447385 19.8224916,39.4447385 C30.6315596,39.4447385 39.3940722,30.6822732 39.3940722,19.8731579 C39.3940722,13.8982013 36.694104,8.35668076 32.1439187,4.66633838 C30.2136703,3.1008466 27.3798129,3.39654028 25.8143211,5.32678871 C24.2488294,7.25703714 24.5445231,10.0908945 26.4747715,11.6563863 C28.9397924,13.6555952 30.3940722,16.6404161 30.3940722,19.8731579 C30.3940722,25.7116996 25.6610077,30.4447385 19.8224916,30.4447385 C16.4707917,30.4447385 13.3873136,28.8800924 11.3964452,26.2589286 C9.89322515,24.2797992 7.07022318,23.8939985 5.09109383,25.3972186 C3.11196448,26.9004386 2.72616377,29.7234406 4.22938383,31.7025699 Z" id="Shadow" fill="#0AA06E" fill-rule="nonzero" mask="url(#mask-10)"></path>
                </g>
                <g id="Group-7" transform="translate(140.000000, 188.122178)">
                    <mask id="mask-12" fill="white">
                        <use xlink:href="#path-11"></use>
                    </mask>
                    <use id="Base" fill="#5784F1" xlink:href="#path-11"></use>
                    <path d="M4.22938383,31.7025699 C7.90432754,36.540976 13.6268282,39.4447385 19.8224916,39.4447385 C30.6315596,39.4447385 39.3940722,30.6822732 39.3940722,19.8731579 C39.3940722,13.8982013 36.694104,8.35668076 32.1439187,4.66633838 C30.2136703,3.1008466 27.3798129,3.39654028 25.8143211,5.32678871 C24.2488294,7.25703714 24.5445231,10.0908945 26.4747715,11.6563863 C28.9397924,13.6555952 30.3940722,16.6404161 30.3940722,19.8731579 C30.3940722,25.7116996 25.6610077,30.4447385 19.8224916,30.4447385 C16.4707917,30.4447385 13.3873136,28.8800924 11.3964452,26.2589286 C9.89322515,24.2797992 7.07022318,23.8939985 5.09109383,25.3972186 C3.11196448,26.9004386 2.72616377,29.7234406 4.22938383,31.7025699 Z" id="Shadow" fill="#456FD4" fill-rule="nonzero" mask="url(#mask-12)"></path>
                </g>
                <g id="Group-7" transform="translate(187.000000, 142.000000)">
                    <mask id="mask-14" fill="white">
                        <use xlink:href="#path-13"></use>
                    </mask>
                    <use id="Base" fill="#8D60F2" xlink:href="#path-13"></use>
                    <path d="M4.22938383,31.7025699 C7.90432754,36.540976 13.6268282,39.4447385 19.8224916,39.4447385 C30.6315596,39.4447385 39.3940722,30.6822732 39.3940722,19.8731579 C39.3940722,13.8982013 36.694104,8.35668076 32.1439187,4.66633838 C30.2136703,3.1008466 27.3798129,3.39654028 25.8143211,5.32678871 C24.2488294,7.25703714 24.5445231,10.0908945 26.4747715,11.6563863 C28.9397924,13.6555952 30.3940722,16.6404161 30.3940722,19.8731579 C30.3940722,25.7116996 25.6610077,30.4447385 19.8224916,30.4447385 C16.4707917,30.4447385 13.3873136,28.8800924 11.3964452,26.2589286 C9.89322515,24.2797992 7.07022318,23.8939985 5.09109383,25.3972186 C3.11196448,26.9004386 2.72616377,29.7234406 4.22938383,31.7025699 Z" id="Shadow" fill="#7D53DB" fill-rule="nonzero" mask="url(#mask-14)"></path>
                </g>
            </g>
        </g>
    </g>
</svg>