<?xml version="1.0" encoding="UTF-8"?>
<svg width="256px" height="256px" viewBox="0 0 256 256" version="1.1" xmlns="http://www.w3.org/2000/svg" xmlns:xlink="http://www.w3.org/1999/xlink">
    <!-- Generator: Sketch 45.2 (43514) - http://www.bohemiancoding.com/sketch -->
    <title>Cry</title>
    <desc>Created with Sketch.</desc>
    <defs>
        <circle id="path-1" cx="128" cy="128" r="128"></circle>
    </defs>
    <g id="Emoji" stroke="none" stroke-width="1" fill="none" fill-rule="evenodd">
        <g id="Cry">
            <g>
                <mask id="mask-2" fill="white">
                    <use xlink:href="#path-1"></use>
                </mask>
                <use id="Base" fill="#FFE554" xlink:href="#path-1"></use>
                <path d="M26.1014933,205.559067 C50.150336,237.22161 87.5493649,256.198961 128.079816,256.198961 C198.763691,256.198961 256.064486,198.898475 256.064486,128.214291 C256.064486,89.126354 238.420656,52.9134653 208.644236,28.7638583 C204.783739,25.6328748 199.116024,26.2242622 195.985041,30.084759 C192.854057,33.9452559 193.445444,39.6129706 197.305941,42.7439542 C222.912033,63.5112943 238.064486,94.6107835 238.064486,128.214291 C238.064486,188.957328 188.822588,238.198961 128.079816,238.198961 C93.2372919,238.198961 61.1163081,221.899843 40.4356161,194.671784 C37.429176,190.713526 31.783172,189.941924 27.8249133,192.948364 C23.8666546,195.954804 23.0950532,201.600808 26.1014933,205.559067 Z" id="Shadow" fill="#FFC83E" fill-rule="nonzero" mask="url(#mask-2)"></path>
                <path d="M80.3773533,23.9709597 C60.4052818,34.1751564 43.2563424,49.2584819 30.5589032,67.7404084 C28.5261153,70.69926 29.2768382,74.7457833 32.2356897,76.7785712 C35.1945412,78.8113592 39.2410646,78.0606363 41.2738525,75.1017848 C52.7487589,58.3993322 68.2489969,44.7661196 86.2920732,35.5474916 C89.4888441,33.9141868 90.7562839,29.9986367 89.1229792,26.8018657 C87.4896744,23.6050947 83.5741243,22.3376549 80.3773533,23.9709597 Z" id="Highlight" fill="#FFF6C2" fill-rule="nonzero" mask="url(#mask-2)"></path>
                <path d="M190.596022,176.220324 C174.017836,159.643382 151.943229,150.5 128.499424,150.5 C105.055124,150.5 82.9811392,159.643163 66.4038059,176.220497 C63.865398,178.758905 63.865398,182.874477 66.4038059,185.412885 C68.9422138,187.951293 73.0577862,187.951293 75.5961941,185.412885 C89.7355313,171.273548 108.502906,163.5 128.499424,163.5 C148.495535,163.5 167.263704,171.273843 181.403978,185.413057 C183.942481,187.95137 188.058054,187.951216 190.596366,185.412712 C193.134679,182.874209 193.134525,178.758637 190.596022,176.220324 Z" id="Shape" fill="#A60B39" fill-rule="nonzero" mask="url(#mask-2)"></path>
                <path d="M111.570352,185.605693 C116.696171,182.92171 122.497705,181.5 128.332399,181.5 C134.168618,181.5 139.972231,182.921921 145.097648,185.605693 C147.29936,186.758554 150.018779,185.908292 151.171639,183.70658 C152.3245,181.504868 151.474239,178.785449 149.272527,177.632589 C142.856381,174.272965 135.61997,172.5 128.332399,172.5 C121.046203,172.5 113.811888,174.272824 107.395473,177.632589 C105.193761,178.785449 104.3435,181.504868 105.496361,183.70658 C106.649221,185.908292 109.36864,186.758554 111.570352,185.605693 Z" id="Shape" fill-opacity="0.24" fill="#FF9700" fill-rule="nonzero" mask="url(#mask-2)"></path>
                <g id="Eyes" mask="url(#mask-2)" fill-rule="nonzero">
                    <g transform="translate(157.000000, 88.000000)">
                        <path d="M15.4325294,0 C6.92302941,0 0,6.92302941 0,15.4325294 C0,23.9420294 6.92302941,30.8650588 15.4325294,30.8650588 C23.9420294,30.8650588 30.8650588,23.9420294 30.8650588,15.4325294 C30.8650588,6.92302941 23.9424853,0 15.4325294,0 Z" id="Shape" fill="#A60B39"></path>
                        <circle id="Oval" fill="#FFFFFF" cx="17.0618529" cy="13.3304559" r="4.17132353"></circle>
                    </g>
                </g>
                <g id="Eyes" mask="url(#mask-2)" fill-rule="nonzero">
                    <g transform="translate(68.000000, 88.000000)">
                        <path d="M30.8099565,15.49225 C30.8099565,6.98275 23.9872609,0.0597205882 15.601087,0.0597205882 C7.21491304,0.0597205882 0.392217391,6.98275 0.392217391,15.49225 C0.392217391,24.00175 7.21491304,30.9247794 15.601087,30.9247794 C23.9872609,30.9247794 30.8099565,24.00175 30.8099565,15.49225 Z" id="Shape" fill="#A60B39"></path>
                        <ellipse id="Oval" fill="#FFFFFF" cx="17.2881159" cy="13.3901765" rx="4.11086957" ry="4.17132353"></ellipse>
                    </g>
                </g>
                <path d="M56.6664871,88.6580154 C72.6974221,88.6571476 85.732462,75.6223763 85.732462,59.5917969 C85.732462,57.1065155 83.7177434,55.0917969 81.232462,55.0917969 C78.7471806,55.0917969 76.732462,57.1065155 76.732462,59.5917969 C76.732462,70.6518532 67.726713,79.6574167 56.6659999,79.6580154 C54.1807185,79.6581499 52.166109,81.6729776 52.1662435,84.158259 C52.166378,86.6435403 54.1812057,88.6581499 56.6664871,88.6580154 Z" id="Shape" fill-opacity="0.24" fill="#FF9700" fill-rule="nonzero" mask="url(#mask-2)"></path>
                <path d="M174.767782,88.6580154 C190.798717,88.6571476 203.833757,75.6223763 203.833757,59.5917969 C203.833757,57.1065155 201.819038,55.0917969 199.333757,55.0917969 C196.848475,55.0917969 194.833757,57.1065155 194.833757,59.5917969 C194.833757,70.6518532 185.828008,79.6574167 174.767294,79.6580154 C172.282013,79.6581499 170.267403,81.6729776 170.267538,84.158259 C170.267673,86.6435403 172.2825,88.6581499 174.767782,88.6580154 Z" id="Shape" fill-opacity="0.24" fill="#FF9700" fill-rule="nonzero" mask="url(#mask-2)" transform="translate(187.050647, 71.874906) scale(-1, 1) translate(-187.050647, -71.874906) "></path>
                <path d="M83.0988128,153.263672 C80.0555234,153.150957 77.5053977,152.080186 75.4483595,150.051327 C73.3913212,148.022467 72.3346393,145.486431 72.2782821,142.443141 C72.7291398,138.441779 74.5325436,134.299586 77.6885475,130.016438 C80.8445514,125.73329 82.6479551,123.3945 83.0988128,123 C83.5496706,123.3945 85.3530743,125.73329 88.5090782,130.016438 C91.6650821,134.299586 93.4684859,138.441779 93.9193436,142.443141 C93.8629864,145.486431 92.8063045,148.022467 90.7492662,150.051327 C88.692228,152.080186 86.1421023,153.150957 83.0988128,153.263672 Z" id="water---Material-Design-Icons" fill="#3FA9F5" mask="url(#mask-2)"></path>
            </g>
        </g>
    </g>
</svg>