<?xml version="1.0" encoding="UTF-8"?>
<svg width="256px" height="256px" viewBox="0 0 256 256" version="1.1" xmlns="http://www.w3.org/2000/svg" xmlns:xlink="http://www.w3.org/1999/xlink">
    <!-- Generator: Sketch 45.2 (43514) - http://www.bohemiancoding.com/sketch -->
    <title>Dumb </title>
    <desc>Created with Sketch.</desc>
    <defs></defs>
    <g id="Emoji" stroke="none" stroke-width="1" fill="none" fill-rule="evenodd">
        <g id="Dumb-">
            <g id="Dumb">
                <rect id="Bounds" x="0" y="0" width="256" height="256"></rect>
                <g id="Group" transform="translate(0.000000, 43.000000)" fill-rule="nonzero" fill="#5784F1">
                    <g id="Group-11" transform="translate(82.365217, 0.000000)">
                        <path d="M45.0610955,136.787726 C36.1892045,136.787726 28.9716404,144.003681 28.9716404,152.873158 C28.9716404,161.750681 36.1892045,168.973073 45.0610955,168.973073 C53.9329865,168.973073 61.1505506,161.750681 61.1505506,152.873158 C61.1505506,144.003681 53.9329865,136.787726 45.0610955,136.787726 Z" id="Shape"></path>
                        <path d="M45.0594862,0 C20.645291,0 0.783713207,19.8615778 0.783713207,44.2741637 C0.783713207,50.9397492 6.18763302,56.343669 12.8532184,56.343669 C19.5188039,56.343669 24.9227237,50.9397492 24.9227237,44.2741637 C24.9227237,33.1718282 33.9555414,24.1390105 45.0594862,24.1390105 C56.163431,24.1390105 65.1970534,33.1718282 65.1970534,44.2741637 C65.1970534,55.3781086 56.163431,64.4109263 45.0594862,64.4109263 C38.3939008,64.4109263 32.989981,69.8148461 32.989981,76.4804315 L32.989981,100.57921 C32.989981,107.244796 38.3939008,112.648716 45.0594862,112.648716 C51.7250716,112.648716 57.1289915,107.244796 57.1289915,100.57921 L57.1289915,86.8650338 C75.6934998,81.5962925 89.3360639,64.5042638 89.3360639,44.2749684 C89.3360639,19.8615778 69.4736814,0 45.0594862,0 Z" id="Shape"></path>
                    </g>
                    <g id="Group-11" transform="translate(213.731897, 84.180901) rotate(17.000000) translate(-213.731897, -84.180901) translate(186.462331, 32.424379)">
                        <path d="M27.3684107,83.0797081 C21.9799585,83.0797081 17.5962822,87.462407 17.5962822,92.849393 C17.5962822,98.2412661 21.9799585,102.627875 27.3684107,102.627875 C32.7568628,102.627875 37.1405391,98.2412661 37.1405391,92.849393 C37.1405391,87.462407 32.7568628,83.0797081 27.3684107,83.0797081 Z" id="Shape"></path>
                        <path d="M27.3674332,0 C12.5391715,0 0.475997857,12.0631736 0.475997857,26.890458 C0.475997857,30.9388833 3.75813503,34.2210205 7.80656033,34.2210205 C11.8549856,34.2210205 15.1371228,30.9388833 15.1371228,26.890458 C15.1371228,20.1473179 20.6233158,14.661125 27.3674332,14.661125 C34.1115507,14.661125 39.5982324,20.1473179 39.5982324,26.890458 C39.5982324,33.6345755 34.1115507,39.1207684 27.3674332,39.1207684 C23.3190079,39.1207684 20.0368708,42.4029056 20.0368708,46.4513309 L20.0368708,61.0880206 C20.0368708,65.1364459 23.3190079,68.4185831 27.3674332,68.4185831 C31.4158586,68.4185831 34.6979957,65.1364459 34.6979957,61.0880206 L34.6979957,52.7585468 C45.9733782,49.558512 54.2593573,39.1774581 54.2593573,26.8909467 C54.2593573,12.0631736 42.195695,0 27.3674332,0 Z" id="Shape"></path>
                    </g>
                    <g id="Group-11" transform="translate(41.210157, 84.180901) rotate(-17.000000) translate(-41.210157, -84.180901) translate(13.940592, 32.424379)">
                        <path d="M27.3684107,83.0797081 C21.9799585,83.0797081 17.5962822,87.462407 17.5962822,92.849393 C17.5962822,98.2412661 21.9799585,102.627875 27.3684107,102.627875 C32.7568628,102.627875 37.1405391,98.2412661 37.1405391,92.849393 C37.1405391,87.462407 32.7568628,83.0797081 27.3684107,83.0797081 Z" id="Shape"></path>
                        <path d="M27.3674332,0 C12.5391715,0 0.475997857,12.0631736 0.475997857,26.890458 C0.475997857,30.9388833 3.75813503,34.2210205 7.80656033,34.2210205 C11.8549856,34.2210205 15.1371228,30.9388833 15.1371228,26.890458 C15.1371228,20.1473179 20.6233158,14.661125 27.3674332,14.661125 C34.1115507,14.661125 39.5982324,20.1473179 39.5982324,26.890458 C39.5982324,33.6345755 34.1115507,39.1207684 27.3674332,39.1207684 C23.3190079,39.1207684 20.0368708,42.4029056 20.0368708,46.4513309 L20.0368708,61.0880206 C20.0368708,65.1364459 23.3190079,68.4185831 27.3674332,68.4185831 C31.4158586,68.4185831 34.6979957,65.1364459 34.6979957,61.0880206 L34.6979957,52.7585468 C45.9733782,49.558512 54.2593573,39.1774581 54.2593573,26.8909467 C54.2593573,12.0631736 42.195695,0 27.3674332,0 Z" id="Shape"></path>
                    </g>
                </g>
            </g>
        </g>
    </g>
</svg>