<?xml version="1.0" encoding="UTF-8"?>
<svg width="256px" height="256px" viewBox="0 0 256 256" version="1.1" xmlns="http://www.w3.org/2000/svg" xmlns:xlink="http://www.w3.org/1999/xlink">
    <!-- Generator: Sketch 45.2 (43514) - http://www.bohemiancoding.com/sketch -->
    <title>Friendly </title>
    <desc>Created with Sketch.</desc>
    <defs></defs>
    <g id="Emoji" stroke="none" stroke-width="1" fill="none" fill-rule="evenodd">
        <g id="Friendly-">
            <g id="Friendly">
                <rect id="Bounds" x="0" y="0" width="256" height="256"></rect>
                <g id="Group-6" transform="translate(0.000000, 25.000000)" fill-rule="nonzero">
                    <g id="Group-5">
                        <path d="M114.578557,36.1774364 C123.888523,14.8790867 145.122899,0 169.864454,0 C203.172028,0 227.14838,27.5050545 230.16668,60.3028127 C230.16668,60.3028127 231.803363,68.4437987 228.211162,83.0890711 C223.343622,103.048303 211.865581,120.775672 196.412737,134.294385 C162.972844,163.105087 137.892924,184.713114 121.172978,199.118465 C119.707551,200.381029 117.509411,198.86154 114.578557,194.56 C111.656674,198.82681 109.465262,200.32025 108.00432,199.040322 C91.5869139,184.65706 66.9608046,163.082166 34.1259923,134.315641 C18.6731484,120.796928 7.19510749,103.048303 2.32756793,83.1103269 C-1.26463376,68.4650545 0.372049847,60.3240685 0.372049847,60.3240685 C3.39034949,27.5050545 27.3667016,0 60.6742758,0 C85.394575,0 105.26859,14.8790867 114.578557,36.1774364 Z" id="Shape" fill="#FF4F50"></path>
                        <path d="M210.194338,79.4229704 C206.272022,95.3328583 197.101546,109.962016 184.121982,121.317014 L108.954926,185.981276 C105.186839,189.222883 104.760043,194.905363 108.001651,198.673449 C111.243258,202.441536 116.925738,202.868332 120.693824,199.626724 L195.917346,134.913477 C211.672125,121.131032 222.84489,103.307732 227.671066,83.731565 C229.930374,74.5672512 230.415521,66.9832274 229.830544,61.2198615 C229.774613,60.6688174 229.713821,60.1943906 229.653161,59.7980527 C227.888664,37.2289705 215.5676,17.1411715 196.779973,6.98394959 C192.407507,4.62004745 186.946602,6.24831034 184.5827,10.6207765 C182.218797,14.9932428 183.84706,20.4541483 188.219527,22.8180504 C201.554268,30.0272598 210.522641,44.7446735 211.732333,61.5259564 L211.860324,62.5249751 C212.303065,66.786433 211.950357,72.3001237 210.194338,79.4229704 Z" id="Shape-Copy" fill="#DE3141"></path>
                        <path d="M27.9766843,63.9356868 C29.760054,44.5444924 43.6666787,30.052 61.278,30.052 C64.8678509,30.052 67.778,27.1418509 67.778,23.552 C67.778,19.9621491 64.8678509,17.052 61.278,17.052 C36.5455221,17.052 17.3985259,37.0056338 15.0313157,62.7451269 C14.7025517,66.3198917 17.3339552,69.4843271 20.9087201,69.8130911 C24.4834849,70.1418552 27.6479202,67.5104516 27.9766843,63.9356868 Z" id="Shape" fill="#FF6E6F"></path>
                    </g>
                    <g id="Group-5" transform="translate(122.880000, 92.160000)">
                        <path d="M65.9080194,20.7788353 C71.2633098,8.54593696 83.4777737,0 97.7096415,0 C116.868866,0 130.660573,15.7977749 132.396763,34.6354616 C132.396763,34.6354616 133.338218,39.31131 131.271907,47.7229537 C128.471995,59.1867177 121.869582,69.3685911 112.980778,77.1331853 C93.7454414,93.6808707 79.3189388,106.091635 69.7012705,114.365478 C68.8583258,115.090642 67.5939088,114.21791 65.9080194,111.747282 C64.2272902,114.197963 62.9667434,115.055734 62.1263788,114.320595 C52.6827381,106.059439 38.517277,93.6677055 19.6299956,77.1453937 C10.7411916,69.3807996 4.13877865,59.1867177 1.33886651,47.7351621 C-0.7274442,39.3235185 0.214010974,34.6476701 0.214010974,34.6476701 C1.95020103,15.7977749 15.741908,0 34.9011321,0 C49.1207732,0 60.5527289,8.54593696 65.9080194,20.7788353 Z" id="Shape" fill="#FFB7B7"></path>
                        <path d="M113.185476,4.00975279 C110.67326,2.65360011 107.537327,3.59077497 106.181174,6.10299143 C104.825022,8.61520789 105.762197,11.7511407 108.274413,13.1072934 C115.946416,17.2488183 121.10498,25.7015124 121.800715,35.3385403 L121.885281,35.9680229 C122.128945,38.3593152 121.926117,41.5252717 120.916214,45.6155449 C118.660219,54.7527019 113.3853,63.154878 105.918877,69.6769866 L62.6811553,106.817516 C60.5155409,108.677757 60.2679867,111.941357 62.1282275,114.106972 C63.9884683,116.272586 67.2520688,116.52014 69.4176832,114.659899 L112.68785,77.4912651 C121.749997,69.5754882 128.176942,59.3383036 130.953266,48.0937267 C132.253065,42.8293231 132.532188,38.4724897 132.195611,35.1614012 C132.163439,34.8449085 132.128469,34.5723841 132.09357,34.3446724 C131.078405,21.3806069 123.99087,9.84275499 113.185476,4.00975279 Z" id="Shape-Copy" fill="#FF9090"></path>
                        <path d="M16.087155,36.7225445 C17.1129229,25.5857345 25.1134674,17.2606359 35.2484071,17.2606359 C37.3102701,17.2606359 38.9817404,15.5891656 38.9817404,13.5273026 C38.9817404,11.4654395 37.3102701,9.79396923 35.2484071,9.79396923 C21.0262941,9.79396923 10.0136938,21.2533124 8.65196006,36.0377178 C8.46285039,38.0908901 9.97397179,39.9086189 12.0271442,40.0977286 C14.0803166,40.2868382 15.8980453,38.7757168 16.087155,36.7225445 Z" id="Shape" fill="#FFE6E6"></path>
                    </g>
                </g>
            </g>
        </g>
    </g>
</svg>