<?xml version="1.0" encoding="UTF-8"?>
<svg width="256px" height="256px" viewBox="0 0 256 256" version="1.1" xmlns="http://www.w3.org/2000/svg" xmlns:xlink="http://www.w3.org/1999/xlink">
    <!-- Generator: Sketch 45.2 (43514) - http://www.bohemiancoding.com/sketch -->
    <title>Funny </title>
    <desc>Created with Sketch.</desc>
    <defs></defs>
    <g id="Emoji" stroke="none" stroke-width="1" fill="none" fill-rule="evenodd">
        <g id="Funny-">
            <g id="Funny">
                <circle id="Base" fill="#FFE554" cx="128" cy="128" r="128"></circle>
                <ellipse id="Cheeks" fill-opacity="0.24" fill="#FF9700" cx="200.884" cy="139.781165" rx="8.19500594" ry="8.17597335"></ellipse>
                <ellipse id="Cheeks" fill-opacity="0.24" fill="#FF9700" transform="translate(55.195006, 139.781165) scale(-1, 1) translate(-55.195006, -139.781165) " cx="55.1950059" cy="139.781165" rx="8.19500594" ry="8.17597335"></ellipse>
                <path d="M26.1014933,205.559067 C50.150336,237.22161 87.5493649,256.198961 128.079816,256.198961 C198.763691,256.198961 256.064486,198.898475 256.064486,128.214291 C256.064486,89.126354 238.420656,52.9134653 208.644236,28.7638583 C204.783739,25.6328748 199.116024,26.2242622 195.985041,30.084759 C192.854057,33.9452559 193.445444,39.6129706 197.305941,42.7439542 C222.912033,63.5112943 238.064486,94.6107835 238.064486,128.214291 C238.064486,188.957328 188.822588,238.198961 128.079816,238.198961 C93.2372919,238.198961 61.1163081,221.899843 40.4356161,194.671784 C37.429176,190.713526 31.783172,189.941924 27.8249133,192.948364 C23.8666546,195.954804 23.0950532,201.600808 26.1014933,205.559067 Z" id="Shadow" fill="#FFC83E" fill-rule="nonzero"></path>
                <path d="M80.3773533,23.9709597 C60.4052818,34.1751564 43.2563424,49.2584819 30.5589032,67.7404084 C28.5261153,70.69926 29.2768382,74.7457833 32.2356897,76.7785712 C35.1945412,78.8113592 39.2410646,78.0606363 41.2738525,75.1017848 C52.7487589,58.3993322 68.2489969,44.7661196 86.2920732,35.5474916 C89.4888441,33.9141868 90.7562839,29.9986367 89.1229792,26.8018657 C87.4896744,23.6050947 83.5741243,22.3376549 80.3773533,23.9709597 Z" id="Highlight" fill="#FFF6C2" fill-rule="nonzero"></path>
                <path d="M103.5,107.5 C103.5,96.454305 94.545695,87.5 83.5,87.5 C72.454305,87.5 63.5,96.454305 63.5,107.5 C63.5,109.985281 65.5147186,112 68,112 C70.4852814,112 72.5,109.985281 72.5,107.5 C72.5,101.424868 77.4248678,96.5 83.5,96.5 C89.5751322,96.5 94.5,101.424868 94.5,107.5 C94.5,109.985281 96.5147186,112 99,112 C101.485281,112 103.5,109.985281 103.5,107.5 Z" id="Eyes" fill="#A60B39" fill-rule="nonzero"></path>
                <path d="M192.5,107.5 C192.5,96.454305 183.545695,87.5 172.5,87.5 C161.454305,87.5 152.5,96.454305 152.5,107.5 C152.5,109.985281 154.514719,112 157,112 C159.485281,112 161.5,109.985281 161.5,107.5 C161.5,101.424868 166.424868,96.5 172.5,96.5 C178.575132,96.5 183.5,101.424868 183.5,107.5 C183.5,109.985281 185.514719,112 188,112 C190.485281,112 192.5,109.985281 192.5,107.5 Z" id="Eyes" fill="#A60B39" fill-rule="nonzero"></path>
                <g id="Mouth" transform="translate(76.000000, 148.000000)">
                    <path d="M5.59275828,0.963652544 L99.9588533,0.963652544 L99.9588533,0.963652361 C102.720277,0.963652361 104.958854,3.20222869 104.958854,5.96365254 C104.958854,6.00515583 104.958337,6.04665751 104.957303,6.08814793 C104.07885,41.357785 86.6874119,58.9926036 52.7829903,58.9926036 C18.8790242,58.9926036 1.48280877,41.3582589 0.594344034,6.08956947 L0.594343742,6.08956948 C0.524801899,3.32902136 2.70629351,1.03478014 5.46684164,0.965238295 C5.50880553,0.964181169 5.55078107,0.963652544 5.59275828,0.963652544 Z" fill="#B2093B"></path>
                    <path d="M32.319625,25.1967679 L73.3705011,25.1967679 L73.3705011,25.196768 C75.0273553,25.196768 76.3705011,26.5399137 76.3705011,28.1967679 C76.3705011,28.620665 76.2806678,29.0397498 76.1069215,29.4264034 C71.6334357,39.3816609 63.8932766,44.3592896 52.8864443,44.3592896 C41.8846753,44.3592896 34.119,39.3862394 29.5894183,29.4401389 L29.5894184,29.4401389 C28.9027236,27.9322875 29.5684025,26.1532562 31.0762539,25.4665613 C31.4666548,25.2887677 31.8906455,25.1967679 32.319625,25.1967679 Z" fill="#DE235B" transform="translate(52.844697, 34.778029) scale(1, -1) translate(-52.844697, -34.778029) "></path>
                </g>
                <path d="M83.8205307,143.263672 C80.7772412,143.150957 78.2271156,142.080186 76.1700774,140.051327 C74.1130391,138.022467 73.0563572,135.486431 73,132.443141 C73.4508577,128.441779 75.2542615,124.299586 78.4102654,120.016438 C81.5662693,115.73329 83.369673,113.3945 83.8205307,113 C84.2713884,113.3945 86.0747922,115.73329 89.2307961,120.016438 C92.3868,124.299586 94.1902038,128.441779 94.6410615,132.443141 C94.5847042,135.486431 93.5280224,138.022467 91.4709841,140.051327 C89.4139458,142.080186 86.8638202,143.150957 83.8205307,143.263672 Z" id="water---Material-Design-Icons" fill="#3FA9F5"></path>
            </g>
        </g>
    </g>
</svg>