<?xml version="1.0" encoding="UTF-8"?>
<svg width="256px" height="256px" viewBox="0 0 256 256" version="1.1" xmlns="http://www.w3.org/2000/svg" xmlns:xlink="http://www.w3.org/1999/xlink">
    <!-- Generator: Sketch 45.2 (43514) - http://www.bohemiancoding.com/sketch -->
    <title>Informative </title>
    <desc>Created with Sketch.</desc>
    <defs>
        <circle id="path-1" cx="127.798425" cy="127.798425" r="127.798425"></circle>
    </defs>
    <g id="Emoji" stroke="none" stroke-width="1" fill="none" fill-rule="evenodd">
        <g id="Informative-">
            <g id="Informative">
                <mask id="mask-2" fill="white">
                    <use xlink:href="#path-1"></use>
                </mask>
                <use id="Mask" fill="#5784F1" fill-rule="nonzero" xlink:href="#path-1"></use>
                <path d="M104.3396,186.164459 L170.154785,251.585449 C224.579982,237.072063 243.671387,264.769828 243.671387,205.506836 C243.671387,204.297387 238.302979,202.335181 238.302979,201.125732 L139.072998,102.666016 L104.3396,186.164459 Z" id="Shape" fill="#456FD4" fill-rule="nonzero" mask="url(#mask-2)"></path>
                <path d="M117.542358,90.0930176 L237.254883,209.217285 C291.68008,194.703899 248.524902,239.317191 248.524902,180.054199 C248.524902,178.84475 246.036621,178.699195 246.036621,177.489746 L137.447876,69.4018555 L117.542358,90.0930176 Z" id="Shape" fill="#456FD4" fill-rule="nonzero" mask="url(#mask-2)"></path>
                <g id="Group-4" mask="url(#mask-2)" fill="#FFFFFF">
                    <g transform="translate(103.000000, 66.000000)" id="Path">
                        <path d="M25.1408992,0 C33.0900575,0 39.5346094,6.44508924 39.5346094,14.3937102 C39.5346094,22.3423312 33.0873707,28.785271 25.1408992,28.785271 C17.1944277,28.785271 10.747189,22.3401818 10.747189,14.3937102 C10.747189,6.44508924 17.1922782,0 25.1408992,0 Z"></path>
                        <path d="M0,116.368031 L0,106.775316 L8.8817842e-16,106.775316 C4.82366169e-16,103.461608 2.6862915,100.775316 6,100.775316 L10.7939393,100.775316 L10.7939393,57.5941858 L6,57.5941858 L6,57.5941858 C2.6862915,57.5941858 1.29399067e-15,54.9078943 8.8817842e-16,51.5941858 L0,42.0030831 L8.8817842e-16,42.0030831 C4.82366169e-16,38.6893746 2.6862915,36.0030831 6,36.0030831 L33.5840465,36.0030831 L33.5840465,36.0030831 C36.897755,36.0030831 39.5840465,38.6893746 39.5840465,42.0030831 L39.5840465,57.5936484 L39.5840465,100.774779 L44.3779858,100.774779 L44.3779858,100.774779 C47.6916943,100.774779 50.3779858,103.461071 50.3779858,106.774779 L50.3779858,116.367494 L50.3779218,116.367494 C50.3779218,119.681177 47.6916693,122.367459 44.3779858,122.367494 L6,122.367967 L6,122.368031 C2.6862915,122.368067 -2.86527877e-05,119.681804 -6.39986347e-05,116.368095 C-6.39988622e-05,116.368074 -6.3998976e-05,116.368053 -6.3998976e-05,116.368031 Z"></path>
                    </g>
                </g>
            </g>
        </g>
    </g>
</svg>