<?xml version="1.0" encoding="UTF-8"?>
<svg width="256px" height="256px" viewBox="0 0 256 256" version="1.1" xmlns="http://www.w3.org/2000/svg" xmlns:xlink="http://www.w3.org/1999/xlink">
    <!-- Generator: Sketch 45.2 (43514) - http://www.bohemiancoding.com/sketch -->
    <title>Old</title>
    <desc>Created with Sketch.</desc>
    <defs></defs>
    <g id="Emoji" stroke="none" stroke-width="1" fill="none" fill-rule="evenodd">
        <g id="Old">
            <g>
                <rect id="Rectangle-4" x="0" y="0" width="256" height="256"></rect>
                <g transform="translate(24.000000, 0.000000)" fill-rule="nonzero">
                    <path d="M188.486,143.9715 C188.486,190.2885 150.805,227.9715 104.486,227.9715 C58.167,227.9715 20.486,190.2885 20.486,143.9715 C20.486,97.6545 58.167,59.9715 104.486,59.9715 C150.805,59.9715 188.486,97.655 188.486,143.9715 Z" id="Shape" fill="#DDE7FF"></path>
                    <path d="M168.486,143.9715 C168.486,179.2605 139.7765,207.9715 104.486,207.9715 C69.1955,207.9715 40.486,179.2605 40.486,143.9715 C40.486,108.6825 69.1955,79.9715 104.486,79.9715 C139.7765,79.9715 168.486,108.6825 168.486,143.9715 Z" id="Shape" fill="#FFFFFF"></path>
                    <path d="M149.415,56.685 C150.8565,56.685 152.247,55.9055 152.962,54.5445 L161.169,38.9 C162.1965,36.945 161.4425,34.527 159.4855,33.4995 C157.5205,32.472 155.1105,33.23 154.083,35.185 L145.876,50.8275 C144.8485,52.7825 145.6025,55.2005 147.5595,56.228 C148.1535,56.5385 148.79,56.685 149.415,56.685 Z" id="Shape" fill="#456FD4"></path>
                    <path d="M124.833,19.8335 C134.333,1.7435 156.7665,-5.26 174.864,4.2415 C183.6255,8.839 190.075,16.5775 193.02,26.0265 C195.965,35.4755 195.055,45.507 190.4575,54.2705 C189.7425,55.634 188.352,56.411 186.9105,56.411 C186.2855,56.411 185.649,56.2645 185.055,55.952 L126.517,25.234 C125.5795,24.742 124.8725,23.896 124.556,22.8825 C124.2435,21.871 124.341,20.773 124.833,19.8335 Z" id="Shape" fill="#DDE7FF"></path>
                    <path d="M174.845,4.233 C174.8515,4.2365 174.858,4.2385 174.8645,4.242 C183.626,8.8395 190.0755,16.578 193.0205,26.027 C195.9655,35.476 195.0555,45.5075 190.458,54.271 C189.743,55.6345 188.3525,56.4115 186.911,56.4115 C186.286,56.4115 185.6495,56.265 185.0555,55.9525 L155.768,40.5835 L174.845,4.233 Z" id="Shape" fill="#A9C2FF"></path>
                    <path d="M59.447,56.685 C58.0055,56.685 56.615,55.9055 55.9,54.5445 L47.693,38.9 C46.6655,36.945 47.4195,34.527 49.3765,33.4995 C51.3415,32.472 53.7515,33.23 54.779,35.185 L62.986,50.8275 C64.0135,52.7825 63.2595,55.2005 61.3025,56.228 C60.7085,56.5385 60.072,56.685 59.447,56.685 Z" id="Shape" fill="#456FD4"></path>
                    <path d="M40.482,255.9715 C39.7905,255.9715 39.0875,255.792 38.447,255.413 C36.5445,254.286 35.9195,251.833 37.0445,249.9325 L48.896,229.9325 C50.021,228.036 52.474,227.405 54.3765,228.53 C56.279,229.657 56.904,232.11 55.779,234.0105 L43.9275,254.0105 C43.181,255.2725 41.849,255.9715 40.482,255.9715 Z" id="Shape" fill="#456FD4"></path>
                    <path d="M168.4895,255.9715 C167.1225,255.9715 165.7905,255.2725 165.044,254.0105 L153.044,233.7605 C151.919,231.86 152.544,229.407 154.4465,228.28 C156.3565,227.155 158.806,227.782 159.927,229.6825 L171.927,249.9325 C173.052,251.833 172.427,254.286 170.5245,255.413 C169.884,255.792 169.181,255.9715 168.4895,255.9715 Z" id="Shape" fill="#456FD4"></path>
                    <path d="M104.486,39.9715 C47.1385,39.9715 0.486,86.626 0.486,143.9715 C0.486,201.317 47.1385,247.9715 104.486,247.9715 C161.8335,247.9715 208.486,201.317 208.486,143.9715 C208.486,86.626 161.8335,39.9715 104.486,39.9715 Z M184.486,143.9715 C184.486,188.083 148.5995,223.9715 104.486,223.9715 C60.3725,223.9715 24.486,188.083 24.486,143.9715 C24.486,99.86 60.3725,63.9715 104.486,63.9715 C148.5995,63.9715 184.486,99.8605 184.486,143.9715 Z" id="Shape" fill="#DE3141"></path>
                    <path d="M104.3765,223.966 C60.314,223.906 24.486,188.046 24.486,143.9715 C24.486,99.897 60.314,64.037 104.3765,63.977 L104.3765,39.9745 C47.079,40.034 0.486,86.6625 0.486,143.9715 C0.486,201.2805 47.079,247.909 104.3765,247.969 L104.3765,223.966 Z" id="Shape" fill="#FF4F50"></path>
                    <path d="M52.486,147.9715 L36.486,147.9715 C34.275,147.9715 32.486,146.1805 32.486,143.9715 C32.486,141.7625 34.275,139.9715 36.486,139.9715 L52.486,139.9715 C54.697,139.9715 56.486,141.7625 56.486,143.9715 C56.486,146.1805 54.697,147.9715 52.486,147.9715 Z" id="Shape" fill="#A9C2FF"></path>
                    <path d="M172.486,147.9715 L156.486,147.9715 C154.275,147.9715 152.486,146.1805 152.486,143.9715 C152.486,141.7625 154.275,139.9715 156.486,139.9715 L172.486,139.9715 C174.697,139.9715 176.486,141.7625 176.486,143.9715 C176.486,146.1805 174.6965,147.9715 172.486,147.9715 Z" id="Shape" fill="#A9C2FF"></path>
                    <path d="M104.486,215.9715 C102.275,215.9715 100.486,214.1805 100.486,211.9715 L100.486,195.9715 C100.486,193.7625 102.275,191.9715 104.486,191.9715 C106.697,191.9715 108.486,193.7625 108.486,195.9715 L108.486,211.9715 C108.486,214.1805 106.6965,215.9715 104.486,215.9715 Z" id="Shape" fill="#A9C2FF"></path>
                    <path d="M104.486,95.9715 C102.275,95.9715 100.486,94.1805 100.486,91.9715 L100.486,75.9715 C100.486,73.7625 102.275,71.9715 104.486,71.9715 C106.697,71.9715 108.486,73.7625 108.486,75.9715 L108.486,91.9715 C108.486,94.1805 106.6965,95.9715 104.486,95.9715 Z" id="Shape" fill="#A9C2FF"></path>
                    <path d="M84.029,19.8335 C74.529,1.7435 52.0955,-5.26 33.998,4.2415 C25.236,8.839 18.787,16.5775 15.842,26.0265 C12.897,35.4755 13.807,45.507 18.4045,54.2705 C19.1195,55.634 20.51,56.411 21.9515,56.411 C22.5765,56.411 23.213,56.2645 23.807,55.952 L82.345,25.234 C83.2825,24.742 83.9895,23.896 84.306,22.8825 C84.6185,21.871 84.521,20.773 84.029,19.8335 Z" id="Shape" fill="#A9C2FF"></path>
                    <path d="M92.486,147.9715 L72.486,147.9715 C70.275,147.9715 68.486,146.1805 68.486,143.9715 C68.486,141.7625 70.275,139.9715 72.486,139.9715 L92.486,139.9715 C94.697,139.9715 96.486,141.7625 96.486,143.9715 C96.486,146.1805 94.6965,147.9715 92.486,147.9715 Z" id="Shape" fill="#A9C2FF"></path>
                    <path d="M104.486,139.9715 C102.275,139.9715 100.486,138.1805 100.486,135.9715 L100.486,107.9715 C100.486,105.7625 102.275,103.9715 104.486,103.9715 C106.697,103.9715 108.486,105.7625 108.486,107.9715 L108.486,135.9715 C108.486,138.1805 106.6965,139.9715 104.486,139.9715 Z" id="Shape" fill="#A9C2FF"></path>
                    <path d="M144.486,187.9715 C143.4625,187.9715 142.439,187.581 141.658,186.7995 L101.658,146.7995 C100.0955,145.237 100.0955,142.706 101.658,141.1435 C103.2205,139.581 105.752,139.581 107.3145,141.1435 L147.3145,181.1435 C148.877,182.706 148.877,185.2375 147.3145,186.8 C146.5325,187.581 145.509,187.9715 144.486,187.9715 Z" id="Shape" fill="#FF4F50"></path>
                    <path d="M34.017,4.233 C25.2355,8.8395 18.7865,16.578 15.8415,26.027 C12.8965,35.476 13.8065,45.5075 18.404,54.271 C19.119,55.6345 20.5095,56.4115 21.951,56.4115 C22.576,56.4115 23.2125,56.265 23.8065,55.9525 L53.094,40.5835 L34.017,4.233 Z" id="Shape" fill="#DDE7FF"></path>
                    <circle id="Oval" fill="#456FD4" cx="104.486" cy="143.9715" r="12"></circle>
                </g>
            </g>
        </g>
    </g>
</svg>