<?xml version="1.0" encoding="UTF-8"?>
<svg width="256px" height="256px" viewBox="0 0 256 256" version="1.1" xmlns="http://www.w3.org/2000/svg" xmlns:xlink="http://www.w3.org/1999/xlink">
    <!-- Generator: Sketch 45.2 (43514) - http://www.bohemiancoding.com/sketch -->
    <title>Optimistic</title>
    <desc>Created with Sketch.</desc>
    <defs></defs>
    <g id="Emoji" stroke="none" stroke-width="1" fill="none" fill-rule="evenodd">
        <g id="Optimistic">
            <g id="Optimistic-">
                <rect id="Rectangle-3" x="0" y="0" width="256" height="256"></rect>
                <g id="rainbow" transform="translate(0.000000, 64.000000)" fill-rule="nonzero">
                    <path d="M216.776315,36.608833 C192.767193,13.2859425 161.155124,0.441683601 127.763844,0.441683601 C94.3725637,0.441683601 62.7604948,13.2859425 38.7513728,36.608833 C14.7931566,59.8818157 1.0320923,91.0082821 0.00249538758,124.25483 C-0.0304437284,125.307384 0.364825664,126.327998 1.09797053,127.083102 C1.83061633,127.838706 2.83825383,128.265916 3.89080831,128.265916 L71.0766234,128.265916 C71.0766234,96.9577852 96.4562123,71.5781963 127.764343,71.5781963 C159.072474,71.5781963 184.451563,96.9577852 184.451563,128.265916 L251.637878,128.265916 C252.690432,128.265916 253.69807,127.839704 254.430715,127.083102 C255.16386,126.327998 255.55913,125.307384 255.52669,124.25483 C254.495096,91.0087812 240.733533,59.8818157 216.776315,36.608833 Z" id="Shape" fill="#FF4F50"></path>
                    <path d="M216.776315,36.608833 C192.767193,13.2859425 161.155124,0.441683601 127.763844,0.441683601 C106.004563,0.441683601 85.0023833,5.90009439 66.3648326,16.1546401 C71.7713393,40.0679392 82.8837993,61.8132457 98.1935011,79.894325 C106.802588,74.6200738 116.927374,71.5781963 127.763844,71.5781963 C159.071975,71.5781963 184.451064,96.9577852 184.451064,128.265916 L250.759002,128.265916 C251.894903,127.970961 253.025812,127.664527 254.151731,127.343122 C254.248552,127.261273 254.341381,127.174932 254.430216,127.083102 C255.163361,126.327998 255.558631,125.307384 255.526191,124.25483 C254.495096,91.0087812 240.733533,59.8818157 216.776315,36.608833 Z" id="Shape" fill="#FF4F50"></path>
                    <path d="M198.501095,54.5900968 C180.14702,36.9626789 155.220094,26.1282052 127.763345,26.1282052 C71.3546096,26.1282052 25.6266323,71.8576797 25.6266323,128.265417 L78.0232834,128.265417 C78.0232834,100.794194 100.292621,78.5253553 127.763345,78.5253553 C155.233569,78.5253553 177.503406,100.794693 177.503406,128.265417 L229.900057,128.265417 C229.900057,104.675021 221.90234,82.953171 208.470168,65.6616324" id="Shape" fill="#FFE554"></path>
                    <path d="M208.470168,65.6616324 L198.500596,54.5900968 C180.146521,36.9626789 155.219595,26.1282052 127.762846,26.1282052 C108.198508,26.1282052 89.9212913,31.6330302 74.3885018,41.1723978 C81.2772688,57.5216781 90.9828292,72.3891973 102.888822,85.1830494 C110.205798,80.9493748 118.701095,78.5243572 127.762846,78.5243572 C155.23307,78.5243572 177.502907,100.793695 177.502907,128.264419 L229.899558,128.264419 C229.900556,104.67552 221.90234,82.9536701 208.470168,65.6616324 Z" id="Shape" fill="#FFE554"></path>
                    <path d="M127.763844,52.3063181 C85.8123861,52.3063181 51.803747,86.31346 51.803747,128.265916 L78.0232834,128.265916 C78.0232834,100.794693 100.292621,78.5258544 127.763345,78.5258544 C155.233569,78.5258544 177.503406,100.795192 177.503406,128.265916 L203.723442,128.265916 C203.722943,86.31346 169.714304,52.3063181 127.763844,52.3063181 Z" id="Shape" fill="#32BA7C"></path>
                    <path d="M127.763844,52.3063181 C112.621832,52.3063181 98.5154061,56.7386255 86.6688032,64.3740124 C91.464439,71.7873098 96.8993931,78.7464467 102.889821,85.1835485 C110.206796,80.9498739 118.702093,78.5248563 127.763844,78.5248563 C155.234568,78.5248563 177.503905,100.794194 177.503905,128.264918 L203.723941,128.264918 C203.722943,86.31346 169.714304,52.3063181 127.763844,52.3063181 Z" id="Shape" fill="#32BA7C"></path>
                </g>
            </g>
        </g>
    </g>
</svg>