<?xml version="1.0" encoding="UTF-8"?>
<svg width="256px" height="256px" viewBox="0 0 256 256" version="1.1" xmlns="http://www.w3.org/2000/svg" xmlns:xlink="http://www.w3.org/1999/xlink">
    <!-- Generator: Sketch 45.2 (43514) - http://www.bohemiancoding.com/sketch -->
    <title>Scared</title>
    <desc>Created with Sketch.</desc>
    <defs>
        <circle id="path-1" cx="128" cy="128" r="128"></circle>
    </defs>
    <g id="Emoji" stroke="none" stroke-width="1" fill="none" fill-rule="evenodd">
        <g id="Scared">
            <g>
                <mask id="mask-2" fill="white">
                    <use xlink:href="#path-1"></use>
                </mask>
                <use id="Base" fill="#5784F1" xlink:href="#path-1"></use>
                <circle id="Eyes" fill="#FFFFFF" mask="url(#mask-2)" transform="translate(83.500000, 103.500000) scale(-1, 1) translate(-83.500000, -103.500000) " cx="83.5" cy="103.5" r="22.5"></circle>
                <circle id="Eyes" fill="#FFFFFF" mask="url(#mask-2)" transform="translate(172.500000, 103.500000) scale(-1, 1) translate(-172.500000, -103.500000) " cx="172.5" cy="103.5" r="22.5"></circle>
                <path d="M26.1014933,205.559067 C50.150336,237.22161 87.5493649,256.198961 128.079816,256.198961 C198.763691,256.198961 256.064486,198.898475 256.064486,128.214291 C256.064486,89.126354 238.420656,52.9134653 208.644236,28.7638583 C204.783739,25.6328748 199.116024,26.2242622 195.985041,30.084759 C192.854057,33.9452559 193.445444,39.6129706 197.305941,42.7439542 C222.912033,63.5112943 238.064486,94.6107835 238.064486,128.214291 C238.064486,188.957328 188.822588,238.198961 128.079816,238.198961 C93.2372919,238.198961 61.1163081,221.899843 40.4356161,194.671784 C37.429176,190.713526 31.783172,189.941924 27.8249133,192.948364 C23.8666546,195.954804 23.0950532,201.600808 26.1014933,205.559067 Z" id="Shadow" fill="#456FD4" fill-rule="nonzero" mask="url(#mask-2)"></path>
                <path d="M80.3773533,23.9709597 C60.4052818,34.1751564 43.2563424,49.2584819 30.5589032,67.7404084 C28.5261153,70.69926 29.2768382,74.7457833 32.2356897,76.7785712 C35.1945412,78.8113592 39.2410646,78.0606363 41.2738525,75.1017848 C52.7487589,58.3993322 68.2489969,44.7661196 86.2920732,35.5474916 C89.4888441,33.9141868 90.7562839,29.9986367 89.1229792,26.8018657 C87.4896744,23.6050947 83.5741243,22.3376549 80.3773533,23.9709597 Z" id="Highlight" fill="#9CB9FF" fill-rule="nonzero" mask="url(#mask-2)"></path>
                <path d="M185.068194,168.376843 C182.584114,165.923197 181.173476,164.707576 178.913022,163.386323 C175.69686,161.506453 172.071192,160.5 167.909419,160.5 C161.401873,160.5 156.743181,162.7497 152.291569,166.887809 C151.820031,167.32614 151.474411,167.662156 150.751334,168.376161 C148.730066,170.372805 148.739367,170.367188 147.928748,170.367188 C147.117473,170.367188 147.127434,170.373204 145.106606,168.376998 C144.384215,167.663564 144.037429,167.326388 143.565681,166.887854 C139.114365,162.749936 134.454837,160.5 127.947269,160.5 C121.439723,160.5 116.781031,162.7497 112.32942,166.887809 C111.857881,167.32614 111.512262,167.662156 110.789184,168.376161 C108.767897,170.372824 108.77723,170.367188 107.966194,170.367188 C107.331971,170.367188 107.276342,170.344755 106.719651,169.87307 C106.367146,169.574393 106.026256,169.24945 105.140842,168.375426 C104.420043,167.663564 104.073257,167.326388 103.601509,166.887854 C99.1501928,162.749936 94.4906646,160.5 87.983097,160.5 C81.4755295,160.5 76.8160013,162.749936 72.3646853,166.887854 C71.892937,167.326388 71.5461515,167.663564 70.8242625,168.376502 C68.2700691,170.899026 68.2443956,175.014518 70.7669191,177.568712 C73.2894427,180.122905 77.404935,180.148579 79.9591284,177.626055 C80.5892638,177.003733 80.8707291,176.730067 81.2157783,176.409311 C83.4576324,174.325297 85.1667889,173.5 87.983097,173.5 C90.7994052,173.5 92.5085617,174.325297 94.7504158,176.409311 C95.095465,176.730067 95.3769303,177.003733 96.0070656,177.626055 C97.1389743,178.743402 97.6202417,179.202155 98.3157762,179.791482 C101.119379,182.166976 104.095696,183.367188 107.966194,183.367188 C113.117776,183.367188 115.675408,181.822597 119.924212,177.625554 C120.554768,177.00291 120.835403,176.730072 121.180417,176.409356 C123.422632,174.325047 125.131145,173.5 127.947269,173.5 C130.763577,173.5 132.472734,174.325297 134.714588,176.409311 C135.059637,176.730067 135.341102,177.003733 135.971238,177.626055 C140.220035,181.823082 142.776557,183.367188 147.928748,183.367188 C153.080053,183.367188 155.637539,181.822615 159.886362,177.625554 C160.516917,177.00291 160.797553,176.730072 161.142567,176.409356 C163.384782,174.325047 165.093294,173.5 167.909419,173.5 C171.14184,173.5 172.645627,174.378975 175.932638,177.625714 C178.486643,180.148428 182.602137,180.123062 185.124851,177.569057 C187.647565,175.015052 187.622199,170.899558 185.068194,168.376843 Z" id="Shape" fill="#2B4175" fill-rule="nonzero" mask="url(#mask-2)"></path>
                <circle id="Oval" fill="#2B4175" fill-rule="nonzero" mask="url(#mask-2)" cx="83.8164062" cy="103.816406" r="6.81640625"></circle>
                <circle id="Oval" fill="#2B4175" fill-rule="nonzero" mask="url(#mask-2)" cx="172.816406" cy="103.816406" r="6.81640625"></circle>
            </g>
        </g>
    </g>
</svg>