<?xml version="1.0" encoding="UTF-8"?>
<svg width="256px" height="256px" viewBox="0 0 256 256" version="1.1" xmlns="http://www.w3.org/2000/svg" xmlns:xlink="http://www.w3.org/1999/xlink">
    <!-- Generator: Sketch 45.2 (43514) - http://www.bohemiancoding.com/sketch -->
    <title>Scared </title>
    <desc>Created with Sketch.</desc>
    <defs>
        <path d="M0,235.879126 L0,98.2853441 C0,44.003498 44.0050526,0 98.2853441,0 L98.2868988,0 C152.568745,0 196.572243,44.003498 196.572243,98.2853441 L196.572243,234.595498 L196.572243,235.223061 C196.572243,244.370138 190.616356,252.862186 181.71336,254.968227 C168.938235,257.990996 157.546235,248.541798 157.263287,236.345004 C157.035271,226.519061 149.955887,217.64353 140.208194,216.390996 C128.569004,214.893862 118.591223,223.589053 117.974024,234.779466 C117.41953,244.831352 110.873911,254.088291 100.888874,255.369846 C89.2512389,256.862834 79.277085,248.16868 78.6598866,236.979304 C78.1053927,226.927417 71.5597733,217.672032 61.5747368,216.38996 C49.898753,214.891789 39.8971336,223.647093 39.3400486,234.88881 C38.8513684,244.729263 32.5151093,253.800162 22.7767449,255.296777 C10.5384939,257.177393 0,247.759287 0,235.879126 Z" id="path-1"></path>
    </defs>
    <g id="Emoji" stroke="none" stroke-width="1" fill="none" fill-rule="evenodd">
        <g id="Scared-">
            <g id="Scared">
                <g id="Group-9" transform="translate(30.000000, 0.000000)">
                    <mask id="mask-2" fill="white">
                        <use xlink:href="#path-1"></use>
                    </mask>
                    <use id="Shape" fill="#5784F1" fill-rule="nonzero" xlink:href="#path-1"></use>
                    <path d="M200.83502,101.603865 C201.798726,43.4053336 158.320571,-3.28607829 100.027168,-4.253316 C93.8659606,-4.25455466 88.9783529,-3.97532852 84.2509084,-3.25091762 C79.3376946,-2.49804032 75.9650755,2.09523406 76.7179528,7.00844786 C77.4708301,11.9216617 82.0641045,15.2942808 86.9773183,14.5414035 C90.649334,13.9787214 94.6631718,13.7476963 99.8023993,13.7454617 C147.98419,14.5834932 183.671484,52.9563993 182.836359,101.372617 L182.83502,231.902498 C183.253261,238.533001 181.875674,240.969361 177.593344,241.770311 C172.707506,242.684138 169.487556,247.385697 170.401383,252.271534 C171.315211,257.157372 176.016769,260.377323 180.902607,259.463495 C195.318708,256.767165 201.646427,245.73269 200.83502,231.351097 L200.83502,101.603865 Z" id="Shape" fill="#456FD4" fill-rule="nonzero" mask="url(#mask-2)"></path>
                    <path d="M15.0060729,163.46319 L15.0060729,194.072874 C15.0060729,197.662725 17.916222,200.572874 21.5060729,200.572874 C25.0959237,200.572874 28.0060729,197.662725 28.0060729,194.072874 L28.0060729,163.46319 C28.0060729,159.87334 25.0959237,156.96319 21.5060729,156.96319 C17.916222,156.96319 15.0060729,159.87334 15.0060729,163.46319 Z" id="Line-2" fill="#9CB9FF" fill-rule="nonzero" mask="url(#mask-2)"></path>
                </g>
                <g id="Group" transform="translate(61.000000, 81.000000)">
                    <circle id="Eyes" fill="#FFFFFF" cx="22.5" cy="22.5" r="22.5"></circle>
                    <circle id="Eyes" fill="#FFFFFF" transform="translate(111.500000, 22.500000) scale(-1, 1) translate(-111.500000, -22.500000) " cx="111.5" cy="22.5" r="22.5"></circle>
                    <path d="M124.068194,87.3768434 C121.584114,84.923197 120.173476,83.7075756 117.913022,82.3863233 C114.69686,80.5064529 111.071192,79.5 106.909419,79.5 C100.401873,79.5 95.7431812,81.7496998 91.2915695,85.8878093 C90.8200312,86.3261398 90.4744114,86.6621561 89.7513341,87.3761612 C87.7300659,89.372805 87.7393673,89.3671875 86.9287483,89.3671875 C86.1174733,89.3671875 86.1274345,89.373204 84.1066057,87.3769982 C83.3842146,86.6635641 83.037429,86.3263884 82.5656808,85.8878539 C78.1143647,81.7499357 73.4548365,79.5 66.947269,79.5 C60.4397228,79.5 55.7810314,81.7496998 51.3294196,85.8878093 C50.8578814,86.3261398 50.5122616,86.6621561 49.7891843,87.3761612 C47.7678972,89.3728237 47.7772299,89.3671875 46.9661941,89.3671875 C46.3319711,89.3671875 46.2763424,89.344755 45.7196514,88.8730705 C45.3671465,88.5743928 45.026256,88.2494501 44.1408418,87.3754262 C43.4200426,86.6635641 43.0732571,86.3263884 42.6015088,85.8878539 C38.1501928,81.7499357 33.4906646,79.5 26.983097,79.5 C20.4755295,79.5 15.8160013,81.7499357 11.3646853,85.8878539 C10.892937,86.3263884 10.5461515,86.6635641 9.8242625,87.3765023 C7.27006906,89.8990258 7.24439556,94.0145181 9.76691914,96.5687116 C12.2894427,99.122905 16.404935,99.1485785 18.9591284,96.6260549 C19.5892638,96.0037327 19.8707291,95.7300672 20.2157783,95.4093114 C22.4576324,93.3252965 24.1667889,92.5 26.983097,92.5 C29.7994052,92.5 31.5085617,93.3252965 33.7504158,95.4093114 C34.095465,95.7300672 34.3769303,96.0037327 35.0070656,96.6260549 C36.1389743,97.7434024 36.6202417,98.202155 37.3157762,98.7914817 C40.1193786,101.166976 43.0956956,102.367188 46.9661941,102.367188 C52.1177757,102.367188 54.6754077,100.822597 58.9242118,96.6255541 C59.5547676,96.0029099 59.8354031,95.7300722 60.1804167,95.409356 C62.4226324,93.3250471 64.1311447,92.5 66.947269,92.5 C69.7635771,92.5 71.4727336,93.3252965 73.7145878,95.4093114 C74.059637,95.7300672 74.3411022,96.0037327 74.9712376,96.6260549 C79.2200347,100.823082 81.7765567,102.367188 86.9287483,102.367188 C92.080053,102.367188 94.6375387,100.822615 98.8863616,96.6255541 C99.5169174,96.0029099 99.7975529,95.7300722 100.142567,95.409356 C102.384782,93.3250471 104.093294,92.5 106.909419,92.5 C110.14184,92.5 111.645627,93.3789748 114.932638,96.6257138 C117.486643,99.1484281 121.602137,99.123062 124.124851,96.569057 C126.647565,94.015052 126.622199,89.8995578 124.068194,87.3768434 Z" id="Shape" fill="#2B4175" fill-rule="nonzero"></path>
                    <circle id="Oval" fill="#2B4175" fill-rule="nonzero" cx="22.8164062" cy="22.8164062" r="6.81640625"></circle>
                    <circle id="Oval" fill="#2B4175" fill-rule="nonzero" cx="111.816406" cy="22.8164062" r="6.81640625"></circle>
                </g>
            </g>
        </g>
    </g>
</svg>