<?xml version="1.0" encoding="UTF-8"?>
<svg width="214px" height="254px" viewBox="0 0 214 254" version="1.1" xmlns="http://www.w3.org/2000/svg" xmlns:xlink="http://www.w3.org/1999/xlink">
    <!-- Generator: Sketch 45.2 (43514) - http://www.bohemiancoding.com/sketch -->
    <title>Sleepy</title>
    <desc>Created with Sketch.</desc>
    <defs></defs>
    <g id="Emoji" stroke="none" stroke-width="1" fill="none" fill-rule="evenodd">
        <g id="Sleepy-" transform="translate(-21.000000, -1.000000)">
            <g id="Sleepy">
                <rect id="Bounds" x="0" y="0" width="256" height="256"></rect>
                <g id="Group-10" transform="translate(20.183888, 1.527344)">
                    <path d="M48.7109622,74.4843316 L83.3834284,74.4843316 C91.4622385,74.4843316 98.0025289,81.040254 98.0025289,89.1251038 C98.0025289,97.2098729 91.4623176,103.764802 83.3834284,103.764802 L15.6048308,103.764802 C9.80991141,103.764802 4.56827686,100.341069 2.22840511,95.0356958 C-0.110475979,89.7359083 0.897766073,83.5556182 4.79588929,79.2621881 L50.2770551,29.2815443 L15.6048308,29.2815443 C7.52602073,29.2815443 0.985730249,22.7256219 0.985730249,14.6407722 C0.985730249,6.55592247 7.52602073,0 15.6048308,0 L83.3834284,0 C89.1777459,0 94.4171535,3.42309206 96.7587826,8.72910647 C99.0976637,14.028894 98.0894217,20.2091841 94.1913517,24.5025557 L48.7109622,74.4843316 Z" id="Path" fill="#5784F1"></path>
                    <path d="M132.412794,82.4843316 C124.333984,82.4843316 117.793693,75.9284091 117.793693,67.8435594 C117.793693,59.7587097 124.333984,53.2027872 132.412794,53.2027872 L200.19032,53.2027872 C205.984496,53.2027872 211.227007,56.6268215 213.566746,61.9318937 C215.905627,67.2316813 214.897385,73.4119713 210.999315,77.7053429 L165.518925,127.687119 L200.191391,127.687119 C208.270201,127.687119 214.810492,134.243041 214.810492,142.327891 C214.810492,150.412741 208.270201,156.968663 200.191391,156.968663 L132.412794,156.968663 C126.618357,156.968663 121.377948,153.54546 119.036368,148.239557 C116.697487,142.939769 117.705729,136.759479 121.603827,132.466077 L167.085133,82.4843316 L132.412794,82.4843316 Z" id="Path" fill="#A9C2FF"></path>
                    <path d="M104.590558,223.451921 C112.669368,223.451921 119.209658,230.007844 119.209658,238.092693 C119.209658,246.178764 112.669218,252.733465 104.588415,252.733465 L62.113084,252.733465 C56.4901031,252.733465 51.3760897,249.509501 48.9336222,244.42825 C46.5071573,239.357009 47.1864078,233.335483 50.6918914,228.952433 L74.179427,199.530678 L62.1141554,199.530678 C54.0353453,199.530678 47.4950549,192.974756 47.4950549,184.889906 C47.4950549,176.805056 54.0353453,170.249134 62.1141554,170.249134 L104.590558,170.249134 C110.213538,170.249134 115.327552,173.473098 117.770019,178.554349 C120.196484,183.62559 119.517234,189.647117 116.01175,194.030166 L92.5242145,223.451921 L104.590558,223.451921 Z" id="Path" fill="#5784F1"></path>
                </g>
            </g>
        </g>
    </g>
</svg>