<?xml version="1.0" encoding="UTF-8"?>
<svg width="256px" height="219px" viewBox="0 0 256 219" version="1.1" xmlns="http://www.w3.org/2000/svg" xmlns:xlink="http://www.w3.org/1999/xlink">
    <!-- Generator: Sketch 47 (45396) - http://www.bohemiancoding.com/sketch -->
    <title>Reactions</title>
    <desc>Created with Sketch.</desc>
    <defs></defs>
    <g id="Migration-Case-Studies" stroke="none" stroke-width="1" fill="none" fill-rule="evenodd">
        <g id="Reactions" transform="translate(-1.000000, -19.000000)">
            <rect id="Bounds" transform="translate(128.000000, 128.000000) scale(-1, 1) rotate(-180.000000) translate(-128.000000, -128.000000) " x="0" y="0" width="256" height="256"></rect>
            <g id="Icon" transform="translate(1.000000, 19.000000)" fill-rule="nonzero" fill="#2577B1">
                <g id="Group">
                    <path d="M12.6792453,128 L12.6792453,128 L12.6792453,128 C5.67669147,128 -6.69081694e-15,122.323309 -1.0658141e-14,115.320755 L0,69.4339623 L-1.77635684e-15,69.4339623 C-2.63392235e-15,62.4314085 5.67669147,56.754717 12.6792453,56.754717 L12.6792453,56.754717 L12.6792453,56.754717 C19.6817991,56.754717 25.3584906,62.4314085 25.3584906,69.4339623 L25.3584906,115.320755 L25.3584906,115.320755 C25.3584906,122.323309 19.6817991,128 12.6792453,128 Z" id="Path"></path>
                    <g id="Group-2" transform="translate(30.188679, 0.000000)">
                        <g id="Path">
                            <path d="M92.1177324,49.1300158 C96.2977966,52.1298941 98.4774016,57.5059136 97.6115311,62.8522314 L89.6395515,113.434338 C88.1765291,125.344746 79.0699606,127.839694 71.6652754,127.839694 L14.2545795,127.839694 C6.49160314,127.839694 0.191649229,121.572621 0.191649229,113.850162 L0.191649229,59.9714097 L0.191649229,59.9714097 C0.191649229,58.4097219 1.18928789,57.0226086 2.66983015,56.5257554 L2.66983015,56.5257554 C3.53570059,56.2881412 10.1939457,54.2684212 16.9417636,49.486437 C26.5260537,42.7144345 31.601846,33.655396 31.601846,23.2894799 L31.601846,9.08478039 L31.6018298,9.08478039 C31.6018298,4.27346418 35.5021722,0.373121764 40.3134884,0.373121764 C42.1623866,0.373121764 43.9633399,0.961357158 45.455773,2.05271774 C45.455773,2.05271774 45.455773,2.05271774 45.455773,2.05271774 C49.277546,4.84468368 51.2182901,10.0424926 51.2182901,17.4976357 L51.2182901,43.8431016 C51.2182901,45.3281898 52.4424518,46.5459622 53.9353318,46.5459622 L83.9666072,46.5459622 C86.9225098,46.5162604 89.7291243,47.4073134 92.1177324,49.1300158 Z" id="path-1"></path>
                        </g>
                    </g>
                </g>
                <g id="Group" transform="translate(192.000000, 154.566038) rotate(180.000000) translate(-192.000000, -154.566038) translate(128.000000, 90.566038)">
                    <path d="M12.6792453,128 L12.6792453,128 L12.6792453,128 C5.67669147,128 7.96299287e-15,122.323309 7.10542736e-15,115.320755 L0,69.4339623 L1.77635684e-15,69.4339623 C9.18791329e-16,62.4314085 5.67669147,56.754717 12.6792453,56.754717 L12.6792453,56.754717 L12.6792453,56.754717 C19.6817991,56.754717 25.3584906,62.4314085 25.3584906,69.4339623 L25.3584906,115.320755 L25.3584906,115.320755 C25.3584906,122.323309 19.6817991,128 12.6792453,128 Z" id="Path"></path>
                    <path d="M122.306411,49.1300158 C126.486476,52.1298941 128.666081,57.5059136 127.80021,62.8522314 L119.82823,113.434338 C118.365208,125.344746 109.25864,127.839694 101.853954,127.839694 L44.4432585,127.839694 C36.6802821,127.839694 30.3803282,121.572621 30.3803282,113.850162 L30.3803282,59.9714097 L30.3803282,59.9714097 C30.3803282,58.4097219 31.3779669,57.0226086 32.8585092,56.5257554 L32.8585092,56.5257554 C33.7243796,56.2881412 40.3826247,54.2684212 47.1304426,49.486437 C56.7147327,42.7144345 61.790525,33.655396 61.790525,23.2894799 L61.790525,9.08478039 L61.7905088,9.08478039 C61.7905088,4.27346418 65.6908512,0.373121764 70.5021674,0.373121764 C72.3510656,0.373121764 74.1520189,0.961357158 75.644452,2.05271774 C75.644452,2.05271774 75.644452,2.05271774 75.644452,2.05271774 C79.466225,4.84468368 81.4069691,10.0424926 81.4069691,17.4976357 L81.4069691,43.8431016 C81.4069691,45.3281898 82.6311308,46.5459622 84.1240108,46.5459622 L114.155286,46.5459622 C117.111189,46.5162604 119.917803,47.4073134 122.306411,49.1300158 Z" id="path-3"></path>
                </g>
            </g>
        </g>
    </g>
</svg>