<?xml version="1.0" encoding="UTF-8"?>
<svg width="256px" height="256px" viewBox="0 0 256 256" version="1.1" xmlns="http://www.w3.org/2000/svg" xmlns:xlink="http://www.w3.org/1999/xlink">
    <!-- Generator: Sketch 45.2 (43514) - http://www.bohemiancoding.com/sketch -->
    <title>Useful </title>
    <desc>Created with Sketch.</desc>
    <defs>
        <path d="M243.78205,38.1379233 L207.889697,75.1639684 C204.270988,78.8296764 192.10479,76.1516952 183.916117,72.9202678 C180.716354,64.6365254 178.071571,52.326587 181.680423,48.6683579 L218.460942,12.5358043 C219.566467,11.4204358 220.045545,9.8194308 219.727638,8.27775922 C219.412196,6.73060304 218.339694,5.45169373 216.898519,4.86982739 C193.984627,-4.34829166 167.908923,1.08644967 150.479282,18.7114654 C135.090649,34.2787584 129.387559,56.1079703 133.904785,76.4004967 C137.130615,83.8753384 96.1185292,125.692287 10.8685274,201.851342 L10.8685386,201.851355 C-1.61138271,213.000434 -2.69024346,232.155523 8.45883564,244.635444 C8.77718212,244.991791 9.1039133,245.340558 9.43875502,245.681452 L9.43875502,245.681452 L9.43875502,245.681452 C21.3518074,257.809825 40.8412335,257.984377 52.9696066,246.071324 C53.2073765,245.837776 53.4413378,245.600381 53.6713977,245.359233 C130.923762,164.383817 173.005608,123.917238 179.916906,123.959469 C182.125,123.562248 184.48687,124.263117 185.170984,124.416187 C204.410472,127.185911 223.849083,120.829258 237.675786,106.860477 C255.10592,89.2559036 260.488639,62.8879348 251.373355,39.7234717 C250.800631,38.2550943 249.533442,37.1781181 248.001578,36.856521 C246.477599,36.5424029 244.89004,37.0200618 243.78205,38.1379233 Z" id="path-1"></path>
        <path d="M110.897523,2.34890517 L4.62131491,109.185106 L4.62131491,109.185106 C2.13942666,111.680072 2.13198267,115.709061 4.60463457,118.213181 L4.60463457,118.213181 L4.60463457,118.213181 C7.04884399,120.688496 11.0369069,120.713713 13.5122224,118.269503 C13.5256113,118.256283 13.538941,118.243002 13.552211,118.229662 L119.833399,11.3860324 C122.301238,8.88704857 122.301238,4.84290298 119.833399,2.34641217 C117.365559,-0.150078637 113.365855,-0.147585636 110.897523,2.34890517 Z" id="path-3"></path>
    </defs>
    <g id="Emoji" stroke="none" stroke-width="1" fill="none" fill-rule="evenodd">
        <g id="Useful-">
            <g id="Shape">
                <mask id="mask-2" fill="white">
                    <use xlink:href="#path-1"></use>
                </mask>
                <use id="Mask" fill="#DDE7FF" fill-rule="nonzero" xlink:href="#path-1"></use>
                <path d="M259.668782,51.6565342 C259.994756,54.4772371 260.148716,57.3060571 260.105086,60.1242233 C259.917525,52.773147 254.479777,43.1056445 251.688939,36.0148236 C251.103691,34.5212716 249.817347,33.422415 248.256183,33.0977298 C246.70555,32.7781178 245.090224,33.264131 243.962856,34.4015439 L207.445753,72.0726395 C203.763752,75.802461 195.392242,75.3605847 187.060349,72.0726395 C186.775498,71.3349953 186.495662,70.5633605 186.220841,69.7688964 L-5.19076305,257.429435 L30.4759036,272.919355 L162.002008,145.195565 C166.883091,140.330359 175.004857,128.232496 185.047361,127.180313 C186.562388,127.279241 189.697254,127.489272 190.393334,127.645526 C209.969321,130.463693 227.694252,118.222078 241.762283,104.008982 C255.581069,90.0495471 261.915495,70.6805516 259.668782,51.6565342 Z M257.440124,40.7963208 L257.065003,39.5883903 L257.440124,40.7963208 Z M259.527861,50.4820869 C259.427562,49.7287157 259.314724,48.980925 259.183833,48.2326271 C259.312217,48.980925 259.427562,49.7317596 259.527861,50.4820869 Z M258.703398,45.7705999 L258.256563,43.8123421 L258.703398,45.7705999 Z" fill="#A9C2FF" fill-rule="nonzero" mask="url(#mask-2)"></path>
                <g mask="url(#mask-2)">
                    <g transform="translate(81.985229, 171.539866) rotate(1.000000) translate(-81.985229, -171.539866) translate(20.812539, 110.120511)">
                        <mask id="mask-4" fill="white">
                            <use xlink:href="#path-3"></use>
                        </mask>
                        <use id="Mask" stroke="none" fill="#5784F1" fill-rule="nonzero" xlink:href="#path-3"></use>
                        <path d="M1.01488946,112.950199 L2.23624084,114.269994 L110.897523,4.9017378 C113.367827,2.40524699 117.365559,2.40524699 119.833399,4.9017378 C120.744237,5.82315082 121.312032,6.9569675 121.552064,8.14662739 C121.96066,6.11433329 121.3904,3.92697456 119.833399,2.34890517 C117.365559,-0.147585636 113.365855,-0.147585636 110.897523,2.34890517 L1.01488946,112.950199 Z" id="Shape" stroke="none" fill="#456FD4" fill-rule="nonzero" mask="url(#mask-4)"></path>
                    </g>
                </g>
            </g>
        </g>
    </g>
</svg>