<?xml version="1.0" encoding="UTF-8"?>
<svg width="256px" height="256px" viewBox="0 0 256 256" version="1.1" xmlns="http://www.w3.org/2000/svg" xmlns:xlink="http://www.w3.org/1999/xlink">
    <!-- Generator: Sketch 45.2 (43514) - http://www.bohemiancoding.com/sketch -->
    <title>Wink</title>
    <desc>Created with Sketch.</desc>
    <defs>
        <circle id="path-1" cx="128" cy="128" r="128"></circle>
    </defs>
    <g id="Emoji" stroke="none" stroke-width="1" fill="none" fill-rule="evenodd">
        <g id="Wink">
            <g>
                <mask id="mask-2" fill="white">
                    <use xlink:href="#path-1"></use>
                </mask>
                <use id="Base" fill="#FFE554" xlink:href="#path-1"></use>
                <ellipse id="Cheeks" fill-opacity="0.24" fill="#FF9700" mask="url(#mask-2)" cx="200.884" cy="139.781165" rx="8.19500594" ry="8.17597335"></ellipse>
                <ellipse id="Cheeks" fill-opacity="0.24" fill="#FF9700" mask="url(#mask-2)" transform="translate(55.195006, 139.781165) scale(-1, 1) translate(-55.195006, -139.781165) " cx="55.1950059" cy="139.781165" rx="8.19500594" ry="8.17597335"></ellipse>
                <path d="M26.1014933,205.559067 C50.150336,237.22161 87.5493649,256.198961 128.079816,256.198961 C198.763691,256.198961 256.064486,198.898475 256.064486,128.214291 C256.064486,89.126354 238.420656,52.9134653 208.644236,28.7638583 C204.783739,25.6328748 199.116024,26.2242622 195.985041,30.084759 C192.854057,33.9452559 193.445444,39.6129706 197.305941,42.7439542 C222.912033,63.5112943 238.064486,94.6107835 238.064486,128.214291 C238.064486,188.957328 188.822588,238.198961 128.079816,238.198961 C93.2372919,238.198961 61.1163081,221.899843 40.4356161,194.671784 C37.429176,190.713526 31.783172,189.941924 27.8249133,192.948364 C23.8666546,195.954804 23.0950532,201.600808 26.1014933,205.559067 Z" id="Shadow" fill="#FFC83E" fill-rule="nonzero"></path>
                <path d="M80.3773533,23.9709597 C60.4052818,34.1751564 43.2563424,49.2584819 30.5589032,67.7404084 C28.5261153,70.69926 29.2768382,74.7457833 32.2356897,76.7785712 C35.1945412,78.8113592 39.2410646,78.0606363 41.2738525,75.1017848 C52.7487589,58.3993322 68.2489969,44.7661196 86.2920732,35.5474916 C89.4888441,33.9141868 90.7562839,29.9986367 89.1229792,26.8018657 C87.4896744,23.6050947 83.5741243,22.3376549 80.3773533,23.9709597 Z" id="Highlight" fill="#FFF6C2" fill-rule="nonzero"></path>
                <path d="M192.5,107.5 C192.5,96.454305 183.545695,87.5 172.5,87.5 C161.454305,87.5 152.5,96.454305 152.5,107.5 C152.5,109.985281 154.514719,112 157,112 C159.485281,112 161.5,109.985281 161.5,107.5 C161.5,101.424868 166.424868,96.5 172.5,96.5 C178.575132,96.5 183.5,101.424868 183.5,107.5 C183.5,109.985281 185.514719,112 188,112 C190.485281,112 192.5,109.985281 192.5,107.5 Z" id="Eyes" fill="#A60B39" fill-rule="nonzero"></path>
                <circle id="Eyes" fill="#A60B39" transform="translate(83.500000, 102.500000) scale(-1, 1) translate(-83.500000, -102.500000) " cx="83.5" cy="102.5" r="15.5"></circle>
                <path d="M187.596022,176.220324 C171.017836,159.643382 148.943229,150.5 125.499424,150.5 C102.055124,150.5 79.9811392,159.643163 63.4038059,176.220497 C60.865398,178.758905 60.865398,182.874477 63.4038059,185.412885 C65.9422138,187.951293 70.0577862,187.951293 72.5961941,185.412885 C86.7355313,171.273548 105.502906,163.5 125.499424,163.5 C145.495535,163.5 164.263704,171.273843 178.403978,185.413057 C180.942481,187.95137 185.058054,187.951216 187.596366,185.412712 C190.134679,182.874209 190.134525,178.758637 187.596022,176.220324 Z" id="Shape" fill="#A60B39" fill-rule="nonzero" transform="translate(125.500000, 168.908345) scale(1, -1) translate(-125.500000, -168.908345) "></path>
                <path d="M109.087439,204.605693 C114.213259,201.92171 120.014792,200.5 125.849487,200.5 C131.685705,200.5 137.489319,201.921921 142.614736,204.605693 C144.816447,205.758554 147.535866,204.908292 148.688727,202.70658 C149.841588,200.504868 148.991326,197.785449 146.789614,196.632589 C140.373468,193.272965 133.137057,191.5 125.849487,191.5 C118.563291,191.5 111.328975,193.272824 104.912561,196.632589 C102.710849,197.785449 101.860587,200.504868 103.013448,202.70658 C104.166309,204.908292 106.885727,205.758554 109.087439,204.605693 Z" id="Shape" fill-opacity="0.24" fill="#FF9700" fill-rule="nonzero" transform="translate(125.851087, 198.310029) scale(1, -1) translate(-125.851087, -198.310029) "></path>
            </g>
        </g>
    </g>
</svg>