<?xml version="1.0" encoding="UTF-8"?>
<svg width="256px" height="256px" viewBox="0 0 256 256" version="1.1" xmlns="http://www.w3.org/2000/svg" xmlns:xlink="http://www.w3.org/1999/xlink">
    <!-- Generator: Sketch 45.2 (43514) - http://www.bohemiancoding.com/sketch -->
    <title>Winner </title>
    <desc>Created with Sketch.</desc>
    <defs>
        <path d="M41.7365,0.5315 L76.627,78.264 C77.8305,80.9445 75.648,83.913 72.731,83.5635 L53.182,81.2265 L41.9155,97.382 C40.2355,99.791 36.5705,99.447 35.368,96.7675 L0.0445,18.0685 L41.7365,0.5315 Z" id="path-1"></path>
        <path d="M41.7365,0.5315 L76.627,78.264 C77.8305,80.9445 75.648,83.913 72.731,83.5635 L53.182,81.2265 L41.9155,97.382 C40.2355,99.791 36.5705,99.447 35.368,96.7675 L0.0445,18.0685 L41.7365,0.5315 Z" id="path-3"></path>
        <path d="M194.243,103.045 L188.6655,112.1925 C187.4075,114.256 186.9225,116.7 187.298,119.088 L188.9605,129.6545 C189.5555,133.4375 187.9815,137.236 184.884,139.4885 L176.238,145.7775 C174.2805,147.2015 172.893,149.2745 172.324,151.627 L169.8065,162.03 C168.907,165.7455 166.0065,168.646 162.291,169.545 L151.8885,172.062 C149.536,172.631 147.462,174.019 146.0385,175.976 L139.7515,184.6195 C137.4985,187.717 133.7,189.291 129.9165,188.696 L119.354,187.0335 C116.966,186.6575 114.522,187.142 112.4575,188.401 L103.3115,193.978 C100.0505,195.9665 95.9515,195.9665 92.691,193.978 L83.5435,188.4005 C81.48,187.1425 79.036,186.6575 76.648,187.033 L66.0815,188.6955 C62.2985,189.2905 58.5,187.7165 56.2475,184.619 L49.9585,175.973 C48.5345,174.0155 46.4615,172.628 44.109,172.059 L33.706,169.5415 C29.9905,168.642 27.09,165.7415 26.191,162.026 L23.674,151.6235 C23.105,149.271 21.717,147.197 19.76,145.7735 L11.116,139.4855 C8.0185,137.2325 6.4445,133.434 7.0395,129.6505 L8.702,119.088 C9.078,116.7 8.5935,114.256 7.3345,112.1915 L1.7565,103.045 C-0.232,99.784 -0.232,95.685 1.7565,92.4245 L7.334,83.277 C8.592,81.2135 9.077,78.7695 8.7015,76.3815 L7.039,65.815 C6.444,62.032 8.018,58.2335 11.1155,55.981 L19.7615,49.692 C21.719,48.268 23.1065,46.195 23.6755,43.8425 L26.193,33.4395 C27.0925,29.724 29.993,26.8235 33.7085,25.9245 L44.111,23.4075 C46.4635,22.8385 48.5375,21.4505 49.961,19.4935 L56.2485,10.85 C58.5015,7.7525 62.3,6.1785 66.0835,6.7735 L76.646,8.436 C79.034,8.812 81.478,8.3275 83.5425,7.0685 L92.6885,1.4915 C95.9495,-0.497 100.0485,-0.497 103.309,1.4915 L112.457,7.069 C114.5205,8.327 116.9645,8.812 119.3525,8.4365 L129.919,6.774 C133.702,6.179 137.5005,7.753 139.753,10.8505 L146.042,19.4965 C147.466,21.454 149.539,22.8415 151.8915,23.4105 L162.2945,25.928 C166.01,26.8275 168.9105,29.728 169.8095,33.4435 L172.3265,43.846 C172.8955,46.1985 174.2835,48.2725 176.2405,49.696 L184.884,55.983 C187.9815,58.236 189.5555,62.0345 188.9605,65.818 L187.298,76.3805 C186.922,78.7685 187.4065,81.2125 188.6655,83.277 L194.2425,92.423 C196.2315,95.6855 196.2315,99.784 194.243,103.045 Z" id="path-5"></path>
        <path d="M49.5,79.1555 L23.18,93.8885 C20.4415,95.4215 17.1655,93.0405 17.777,89.963 L23.6555,60.378 L1.51,39.899 C-0.794,37.768 0.4575,33.9165 3.5735,33.547 L33.527,29.9955 L46.1605,2.606 C47.4745,-0.2435 51.525,-0.2435 52.8395,2.606 L65.473,29.9955 L95.4265,33.547 C98.5425,33.9165 99.794,37.768 97.49,39.899 L75.3445,60.378 L81.223,89.963 C81.8345,93.0405 78.558,95.4215 75.82,93.8885 L49.5,79.1555 Z" id="path-7"></path>
    </defs>
    <g id="Emoji" stroke="none" stroke-width="1" fill="none" fill-rule="evenodd">
        <g id="Winner-">
            <g id="Winner">
                <rect id="Bounds" x="0" y="0" width="256" height="256"></rect>
                <g id="medal" transform="translate(30.000000, 0.000000)">
                    <g id="Shape" transform="translate(107.000000, 157.000000)">
                        <mask id="mask-2" fill="white">
                            <use xlink:href="#path-1"></use>
                        </mask>
                        <use id="Mask" fill="#B2093B" fill-rule="nonzero" xlink:href="#path-1"></use>
                        <path d="M50.1279043,90.107743 L19.5846211,21.3296453 L18.7661211,19.5056453 C18.7661211,19.5056453 13.9016211,21.3296453 10.2191211,28.1126453 C8.45262105,31.3661453 5.71962105,33.7596453 3.90362105,35.1056453 C2.83662105,35.8971453 2.46362105,37.3196453 3.00662105,38.5321453 L26.3888744,93.1550673 L45.9621423,95.6078605 C48.8801423,95.9563605 51.3309043,92.788743 50.1279043,90.107743 Z" fill="#DE235B" fill-rule="nonzero" mask="url(#mask-2)" transform="translate(26.600036, 57.569960) scale(-1, 1) rotate(48.000000) translate(-26.600036, -57.569960) "></path>
                    </g>
                    <g id="Shape" transform="translate(50.500000, 206.500000) scale(-1, 1) translate(-50.500000, -206.500000) translate(12.000000, 157.000000)">
                        <mask id="mask-4" fill="white">
                            <use xlink:href="#path-3"></use>
                        </mask>
                        <use id="Mask" fill="#B2093B" fill-rule="nonzero" xlink:href="#path-3"></use>
                        <path d="M77.3688155,78.6020978 L46.8255322,9.824 L46.0070322,8 C46.0070322,8 41.1425322,9.824 37.4600322,16.607 C35.6935322,19.8605 32.9605322,22.254 31.1445322,23.6 C30.0775322,24.3915 29.7045322,25.814 30.2475322,27.0265 L53.3640137,81.6650391 L73.2030534,84.1022152 C76.1210534,84.4507152 78.5718155,81.2830978 77.3688155,78.6020978 Z" fill="#DE235B" fill-rule="nonzero" mask="url(#mask-4)"></path>
                    </g>
                    <mask id="mask-6" fill="white">
                        <use xlink:href="#path-5"></use>
                    </mask>
                    <use id="Mask" fill="#FFC83E" fill-rule="nonzero" xlink:href="#path-5"></use>
                    <circle id="Oval" fill="#FFE554" fill-rule="nonzero" mask="url(#mask-6)" cx="98.003" cy="97.735" r="72.35"></circle>
                    <path d="M128.693615,133.087072 C102.066115,128.838572 80.6986153,107.471072 76.4501153,80.8435722 C74.9536153,71.4610722 75.5626153,62.4150722 77.8421153,54.0550722 C78.9671153,49.9305722 74.0656153,46.7765722 70.8091153,49.5460722 C55.6276153,62.4550722 46.6096153,82.3810722 48.8356153,104.335072 C51.8216153,133.790072 75.7466153,157.714572 105.201115,160.700572 C127.155115,162.926572 147.081615,153.909072 159.990115,138.727072 C162.759115,135.470072 159.605615,130.569072 155.481115,131.694072 C147.122115,133.975072 138.076115,134.584072 128.693615,133.087072 Z" id="Shape" fill="#FFC83E" fill-rule="nonzero" mask="url(#mask-6)" transform="translate(104.767987, 104.768101) scale(-1, 1) translate(-104.767987, -104.768101) "></path>
                    <g id="Group" mask="url(#mask-6)">
                        <g transform="translate(48.500000, 49.000000)">
                            <mask id="mask-8" fill="white">
                                <use xlink:href="#path-7"></use>
                            </mask>
                            <use id="Shape" stroke="none" fill="#FFFFFF" fill-rule="nonzero" xlink:href="#path-7"></use>
                        </g>
                    </g>
                </g>
            </g>
        </g>
    </g>
</svg>